<svg width="205" height="179" viewBox="0 0 205 179" fill="none" xmlns="http://www.w3.org/2000/svg">
<g clip-path="url(#clip0_169_270548)">
<g style="mix-blend-mode:soft-light" opacity="0.4">
<path d="M190.657 167.416C183.972 171.983 172.95 172.797 164.86 174.168C135.321 179.161 104.699 179.698 74.7622 177.896C58.1908 176.904 41.7104 174.69 25.5558 171.269C21.4585 170.401 13.676 169.093 12.8709 164.627C12.5546 162.863 14.366 161.08 16.5034 159.652C28.7666 151.458 44.9499 148.041 59.7578 145.372C75.7877 142.482 92.201 141.241 108.552 141.701C129.762 142.295 151.145 145.319 171.186 151.568C178.408 153.82 186.799 156.197 191.831 161.632C193.043 162.94 193.393 164.79 192.123 166.175C191.711 166.625 191.218 167.037 190.662 167.42L190.657 167.416Z" fill="black"/>
</g>
<path d="M202.101 165.738C201.296 165.988 200.347 166.031 199.24 165.935C195.305 165.609 191.443 164.502 187.494 164.167C187.115 164.133 186.938 164.243 187.159 164.445C187.408 164.679 188.112 164.909 188.467 165.087C189.847 165.772 191.213 166.476 192.67 167.085C193.278 167.339 194.194 167.607 194.428 168.091C194.63 168.513 193.901 168.7 193.432 168.801C192.143 169.079 190.825 169.318 189.492 169.534C186.44 170.032 183.31 170.396 180.162 170.698C172.365 171.441 164.405 171.801 156.45 172.059C146.799 172.371 137.109 172.5 127.419 172.577C119.267 172.644 111.106 172.663 102.95 172.663C99.5331 172.663 96.1115 172.663 92.6947 172.663C88.42 172.658 84.1454 172.644 79.8707 172.615C77.0769 172.596 74.2112 172.462 71.379 172.5C70.3678 172.515 69.3471 172.591 68.4701 172.232C67.6842 171.906 67.2337 171.345 66.8647 170.809C66.7113 170.583 66.5867 170.349 66.4334 170.123C66.2992 169.922 66.1027 169.419 65.681 169.438C65.4845 169.448 65.3072 169.524 65.1443 169.601C64.344 169.97 63.6539 170.339 62.959 170.789C62.3265 171.202 61.6699 171.628 60.8505 171.887C59.0582 172.457 56.7244 172.265 54.8458 172.222C48.985 172.074 43.1337 171.82 37.2968 171.571C36.4629 171.527 30.3481 171.542 31.9391 170.253C33.6643 168.858 35.7058 167.646 37.7425 166.448C38.6913 165.887 39.621 165.326 40.5363 164.751C41.0874 164.406 41.6385 164.061 42.1896 163.716C42.4101 163.577 42.6018 163.419 42.803 163.27C42.918 163.189 43.3637 162.973 43.2247 162.887C43.0426 162.767 42.4149 162.935 42.1896 162.964C41.7056 163.036 41.2264 163.117 40.7472 163.203C39.8079 163.376 38.8734 163.572 37.9294 163.735C36.0844 164.052 34.2442 164.382 32.4039 164.713C28.8146 165.365 25.23 166.05 21.655 166.764C19.4123 167.214 17.1024 167.828 14.8118 168.058C11.3374 168.398 8.01642 167.837 5.3807 166.654C3.14754 165.647 1.23065 164.238 0.933538 162.355C0.574122 160.093 2.62519 157.803 5.04525 155.972C8.75442 153.159 13.6137 150.95 18.4682 149.071C25.2492 146.445 32.4806 144.394 39.8175 142.697C42.0315 142.185 44.5378 141.538 46.8668 141.653C48.616 141.739 50.1782 142.257 51.9082 142.405C52.2293 142.434 52.5983 142.444 52.8667 142.309C53.3555 142.075 53.1494 141.624 53.0488 141.265C52.9338 140.852 52.9577 140.162 53.667 139.928C54.3427 139.702 55.4449 139.654 56.1877 139.539C58.0902 139.238 59.9975 138.96 61.9095 138.696C65.8967 138.154 69.903 137.694 73.9236 137.316C82.5208 136.511 91.1755 136.075 99.8351 135.993C100.87 135.984 101.905 135.979 102.945 135.979C111.715 135.979 120.485 136.338 129.206 137.071C130.371 137.167 131.535 137.273 132.7 137.388C133.452 137.46 134.267 137.445 134.995 137.575C135.13 137.599 135.269 137.632 135.374 137.694C135.585 137.819 135.59 138.011 135.527 138.164C135.479 138.293 135.436 138.423 135.412 138.557C135.398 138.619 135.35 138.725 135.427 138.777C135.566 138.873 135.796 138.754 135.901 138.706C136.194 138.567 136.491 138.432 136.793 138.303C137.094 138.174 137.406 138.054 137.77 138.001C138.331 137.924 138.911 138.049 139.471 138.083C140.085 138.121 140.689 138.222 141.297 138.308C141.494 138.337 141.705 138.37 141.848 138.461C142.131 138.638 142.011 138.921 141.872 139.137C141.633 139.511 141.479 139.908 141.316 140.297C141.283 140.383 141.182 140.488 141.201 140.579C141.235 140.728 141.455 140.67 141.594 140.627C142.265 140.397 142.974 140.201 143.674 139.999C144.34 139.808 145.016 139.635 145.701 139.468C146.228 139.343 146.933 139.089 147.527 139.166C148.212 139.252 148.917 139.405 149.597 139.515C153.513 140.134 157.399 140.838 161.257 141.638C168.019 143.043 174.689 144.734 181.106 146.828C186.138 148.467 191.079 150.36 195.511 152.675C198.631 154.304 201.703 156.221 203.562 158.497C204.564 159.724 205.153 161.066 204.952 162.35C204.803 163.299 204.343 164.248 203.495 164.976C203.088 165.326 202.623 165.575 202.096 165.734L202.101 165.738Z" fill="#1F805F"/>
<g style="mix-blend-mode:soft-light" opacity="0.25">
<path d="M107.9 153.015C107.9 153.504 105.677 153.882 102.945 153.882C100.214 153.882 97.9949 153.504 97.9901 153.015C97.9901 152.526 100.204 152.109 102.945 152.109C105.686 152.109 107.9 152.526 107.9 153.015Z" fill="black"/>
</g>
<g style="mix-blend-mode:soft-light" opacity="0.25">
<path d="M169.897 156.777C169.552 157.304 168.9 157.807 167.86 158.272C165.455 159.346 162.704 159.556 160.145 160.074C157.456 160.62 154.735 161.023 152.013 161.387C146.367 162.135 140.684 162.6 135.005 162.978C114.902 164.32 94.7026 164.138 74.628 162.432C67.1713 161.799 59.7195 161.071 52.3011 160.074C48.544 159.571 44.7917 159.001 41.0586 158.334C38.6913 157.913 34.0764 157.918 33.0556 155.152C32.3991 153.375 34.3974 151.99 35.6961 151.175C38.1881 149.608 41.4612 148.386 44.7294 147.356C63.3759 141.471 83.3163 140.21 102.758 140.407C119.962 140.579 137.545 142.223 154.159 146.876C157.548 147.825 160.873 148.913 163.859 150.24C166.188 151.276 171.56 154.242 169.897 156.767V156.777Z" fill="black"/>
</g>
<g style="mix-blend-mode:soft-light" opacity="0.25">
<path d="M91.7889 156.571C89.6133 156.906 87.5286 157.577 85.444 158.282C83.3738 158.977 81.3323 159.763 79.3292 160.63C77.3165 161.502 75.3373 162.456 73.406 163.496C72.438 164.013 71.5083 164.593 70.5834 165.183C69.8071 165.681 68.7672 166.28 68.2113 167.032C68.1586 167.104 68.2448 167.195 68.3215 167.176C69.2703 166.96 70.2336 166.266 71.0722 165.786C72.0259 165.245 72.9891 164.722 73.9475 164.191C75.7925 163.165 77.6807 162.211 79.6071 161.339C81.5767 160.448 83.5799 159.638 85.6213 158.919C87.6916 158.186 89.8097 157.616 91.8752 156.878C92.0669 156.811 91.9902 156.547 91.7937 156.576L91.7889 156.571Z" fill="black"/>
</g>
<g style="mix-blend-mode:soft-light" opacity="0.25">
<path d="M75.5625 159.101C74.2399 159.164 72.9364 159.715 71.7335 160.213C70.4492 160.745 69.1937 161.334 67.9717 161.991C66.7449 162.652 65.566 163.381 64.4302 164.186C63.2897 164.996 62.3216 165.911 61.3153 166.865C61.2626 166.913 61.3344 167.013 61.3967 166.965C62.4798 166.189 63.6587 165.499 64.7848 164.785C65.9254 164.061 67.0947 163.381 68.2879 162.753C69.4812 162.12 70.708 161.55 71.9636 161.042C73.1904 160.548 74.537 160.189 75.6775 159.509C75.8596 159.398 75.7925 159.087 75.5673 159.096L75.5625 159.101Z" fill="black"/>
</g>
<g style="mix-blend-mode:soft-light" opacity="0.25">
<path d="M88.8753 150.566C86.2061 150.221 83.4889 150.226 80.8005 150.169C78.1072 150.111 75.414 150.097 72.7208 150.121C67.2912 150.169 61.8665 150.379 56.4513 150.753C45.7551 151.491 35.102 152.857 24.5639 154.846C18.5689 155.977 12.593 157.247 6.7561 159.034C6.574 159.092 6.65067 159.355 6.83278 159.317C12.1042 158.2 17.3565 156.973 22.6423 155.938C27.9137 154.908 33.2139 154.036 38.538 153.317C49.1959 151.884 59.9448 151.079 70.6985 150.916C73.7272 150.868 76.7606 150.873 79.7893 150.926C82.8132 150.978 85.8514 151.218 88.8753 151.132C89.2539 151.122 89.2299 150.605 88.8753 150.557V150.566Z" fill="black"/>
</g>
<g style="mix-blend-mode:soft-light" opacity="0.25">
<path d="M197.582 157.716C193.518 156.073 189.119 155.109 184.839 154.213C180.521 153.307 176.17 152.598 171.804 151.99C163.04 150.772 154.231 150.006 145.399 149.483C140.401 149.186 135.412 148.923 130.409 148.951C130.227 148.951 130.237 149.21 130.409 149.229C139.179 150.154 148.006 150.403 156.79 151.189C165.584 151.975 174.335 153.125 182.975 154.956C185.352 155.459 187.71 156.029 190.068 156.604C192.512 157.199 194.922 157.932 197.376 158.469C197.879 158.579 198.047 157.898 197.587 157.711L197.582 157.716Z" fill="black"/>
</g>
<g style="mix-blend-mode:soft-light" opacity="0.25">
<path d="M196.048 161.143C194.831 160.51 193.302 160.318 191.98 159.993C190.508 159.633 189.037 159.264 187.561 158.914C184.643 158.215 181.719 157.63 178.767 157.098C178.614 157.069 178.547 157.29 178.7 157.333C181.561 158.215 184.422 159.034 187.331 159.753C188.759 160.108 190.192 160.448 191.625 160.793C192.986 161.124 194.495 161.684 195.904 161.679C196.178 161.679 196.307 161.282 196.048 161.147V161.143Z" fill="black"/>
</g>
<g style="mix-blend-mode:soft-light" opacity="0.25">
<path d="M177.215 165.46C174.402 163.491 171.086 162.154 167.908 160.879C164.64 159.566 161.295 158.483 157.893 157.563C150.891 155.67 143.722 154.438 136.529 153.547C132.355 153.029 128.167 152.646 123.978 152.272C123.743 152.253 123.753 152.603 123.978 152.632C138.211 154.515 152.549 156.159 166.13 161.047C167.975 161.713 169.801 162.441 171.594 163.242C173.419 164.061 175.188 165 177.028 165.786C177.248 165.882 177.421 165.604 177.22 165.46H177.215Z" fill="black"/>
</g>
<g style="mix-blend-mode:soft-light" opacity="0.25">
<path d="M130.951 169.179C130.016 167.555 128.564 166.117 127.27 164.785C125.905 163.376 124.457 162.039 122.938 160.798C121.448 159.58 119.895 158.411 118.247 157.419C116.627 156.442 114.935 155.358 113.062 155.013C112.99 154.999 112.913 155.09 112.98 155.152C114.375 156.336 116.066 157.103 117.605 158.085C119.248 159.13 120.868 160.208 122.406 161.401C123.921 162.571 125.363 163.831 126.724 165.178C127.395 165.844 128.047 166.529 128.679 167.234C129.326 167.957 129.94 168.753 130.644 169.419C130.802 169.572 131.066 169.376 130.951 169.179Z" fill="black"/>
</g>
<g style="mix-blend-mode:soft-light" opacity="0.25">
<path d="M115.999 161.191C115.788 160.731 115.429 160.333 115.089 159.964C114.739 159.585 114.355 159.264 113.948 158.953C113.546 158.646 113.133 158.373 112.678 158.143C112.228 157.918 111.715 157.803 111.226 157.688C111.14 157.668 111.102 157.774 111.169 157.822C111.566 158.114 111.926 158.459 112.328 158.747C112.726 159.029 113.133 159.312 113.522 159.609C113.895 159.892 114.255 160.199 114.614 160.496C114.993 160.807 115.343 161.167 115.755 161.44C115.918 161.55 116.066 161.344 115.999 161.195V161.191Z" fill="black"/>
</g>
<g style="mix-blend-mode:soft-light" opacity="0.25">
<path d="M155.866 166.036C155.42 165.575 154.945 165.144 154.452 164.737C153.489 163.941 152.41 163.309 151.26 162.825C151.217 162.806 151.193 162.873 151.227 162.901C152.243 163.601 153.211 164.368 154.14 165.178C154.586 165.566 155.017 165.983 155.42 166.414C155.636 166.644 155.842 166.874 156.043 167.114C156.225 167.329 156.445 167.583 156.695 167.722C156.843 167.804 157.03 167.67 156.982 167.502C156.819 166.932 156.263 166.448 155.861 166.04L155.866 166.036Z" fill="black"/>
</g>
<g style="mix-blend-mode:soft-light" opacity="0.25">
<path d="M96.8063 164.368C96.6194 164.445 96.4757 164.526 96.3223 164.655C96.1786 164.77 96.0396 164.89 95.9054 165.015C95.6418 165.269 95.4118 165.571 95.1866 165.863C94.9709 166.146 94.7649 166.443 94.578 166.745C94.4821 166.903 94.3911 167.061 94.3096 167.224C94.2138 167.416 94.1179 167.588 94.1275 167.809C94.1371 168.02 94.3959 168.226 94.5971 168.077C94.6882 168.01 94.7697 167.948 94.8319 167.847C94.8751 167.775 94.9134 167.703 94.9518 167.631C95.038 167.478 95.1243 167.329 95.2105 167.176C95.3878 166.874 95.5747 166.582 95.7808 166.299C95.9725 166.036 96.1881 165.791 96.399 165.537C96.629 165.259 96.883 164.991 97.0507 164.675C97.1322 164.531 96.9932 164.286 96.8111 164.363L96.8063 164.368Z" fill="black"/>
</g>
<g style="mix-blend-mode:soft-light" opacity="0.25">
<path d="M52.8283 161.842C52.0615 162.197 51.3331 162.758 50.6382 163.237C49.9242 163.73 49.2245 164.243 48.5249 164.756C47.8587 165.245 47.2166 165.762 46.5649 166.275C46.2198 166.548 45.8508 166.812 45.5249 167.109C45.3093 167.31 44.9834 167.531 44.9786 167.852C44.9786 167.885 45.0026 167.914 45.0313 167.924C45.3237 168.015 45.6016 167.799 45.8508 167.665C46.2438 167.454 46.608 167.19 46.977 166.946C47.7006 166.467 48.4242 165.997 49.1287 165.489C49.814 164.996 50.4993 164.507 51.1702 163.999C51.8507 163.481 52.6222 162.964 53.2021 162.336C53.4513 162.068 53.1398 161.703 52.8235 161.847L52.8283 161.842Z" fill="black"/>
</g>
<g style="mix-blend-mode:soft-light" opacity="0.25">
<path d="M26.1214 160.822C24.0608 160.625 21.8228 161.277 19.8628 161.857C17.8501 162.451 15.7607 163.146 14.0067 164.32C13.7815 164.468 13.9157 164.847 14.1936 164.77C16.1968 164.205 18.1184 163.381 20.1216 162.806C21.1088 162.523 22.1055 162.293 23.1023 162.048C24.1231 161.799 25.1917 161.632 26.1741 161.263C26.4089 161.171 26.3658 160.85 26.1166 160.826L26.1214 160.822Z" fill="black"/>
</g>
<g style="mix-blend-mode:soft-light" opacity="0.25">
<path d="M34.2586 160.994C32.9119 161.037 31.6372 161.286 30.3385 161.636C29.0686 161.977 27.7987 162.427 26.6437 163.055C26.5191 163.122 26.6054 163.318 26.7396 163.28C27.9904 162.911 29.2267 162.508 30.4919 162.183C31.7522 161.857 33.0365 161.617 34.3065 161.334C34.4934 161.291 34.455 160.989 34.2586 160.999V160.994Z" fill="black"/>
</g>
<g style="mix-blend-mode:soft-light" opacity="0.25">
<path d="M48.4242 148.587C45.1895 147.988 41.6768 147.725 38.2025 147.475C36.5252 147.356 34.8431 147.236 33.1515 147.159C32.8208 147.145 29.3704 146.919 29.773 147.341C30.003 147.581 30.4822 147.595 31.0621 147.648C31.9103 147.72 32.7825 147.772 33.6403 147.825C35.2553 147.931 36.8702 148.031 38.4756 148.151C41.7343 148.395 44.9547 148.736 48.2565 148.851C48.5824 148.86 48.7309 148.645 48.429 148.587H48.4242Z" fill="black"/>
</g>
<g style="mix-blend-mode:soft-light" opacity="0.25">
<path d="M161.233 143.143C157.917 143.263 154.634 143.804 151.375 144.404C149.732 144.705 148.097 145.022 146.468 145.405C144.877 145.784 143.233 146.129 141.757 146.848C141.542 146.953 141.705 147.241 141.911 147.207C143.516 146.948 145.059 146.373 146.626 145.956C148.193 145.534 149.775 145.146 151.37 144.84C154.624 144.207 157.941 143.953 161.238 143.666C161.568 143.637 161.578 143.129 161.238 143.143H161.233Z" fill="black"/>
</g>
<path d="M167.985 149.359C167.951 149.651 167.592 149.847 167.271 149.991C165.402 150.815 163.495 151.573 161.549 152.258C162.761 153.681 163.883 155.133 164.932 156.624C165.196 156.983 165.388 157.491 164.832 157.846C164.415 158.119 163.801 158.095 163.303 158.061C160.293 157.812 157.332 157.477 154.442 157.036C154.84 158.358 155.18 159.686 155.458 161.032C155.516 161.32 155.554 161.655 155.281 161.866C154.936 162.13 154.389 161.943 153.997 161.756C151.461 160.481 142.639 154.218 138.278 150.24C128.665 151.601 131.133 151.913 121.491 152.359C121.453 152.359 121.429 152.368 121.395 152.368C102.528 153.231 83.6805 152.359 65.1826 149.742C65.1778 149.752 65.173 149.752 65.1682 149.756C60.3329 152.67 54.3139 155.857 52.2676 156.619C51.8555 156.772 51.29 156.911 50.9689 156.667C50.7245 156.48 50.7868 156.183 50.8731 155.943C51.2804 154.779 51.7548 153.638 52.282 152.502C49.3491 152.78 46.354 152.967 43.3157 153.068C42.8126 153.082 42.1992 153.073 41.8014 152.828C41.2886 152.498 41.533 152.066 41.8254 151.76C43.0186 150.514 44.2886 149.296 45.6352 148.108C43.7614 147.437 41.9212 146.709 40.1385 145.918C39.8318 145.788 39.482 145.597 39.482 145.352C39.4724 145.027 40.0283 144.897 40.4596 144.758C44.9355 143.407 49.7756 143.071 56.6285 143.004C40.6896 135.897 20.8259 118.367 17.6679 92.7435C16.3883 82.402 29.2985 67.2538 43.1432 80.7055C43.1384 69.4966 46.632 60.9041 47.8156 58.1726C48.0457 57.6359 48.1894 57.3244 48.199 57.2716C48.1894 57.2669 48.1846 57.2525 48.175 57.2477C48.1559 57.2333 48.1319 57.2237 48.1175 57.2046C44.9834 54.8276 42.8892 51.7702 41.2791 48.8709C29.5813 27.7756 49.3443 26.7597 55.3681 27.1335C53.7915 22.4275 54.4289 16.9452 56.7483 12.2489H56.7531C57.8313 10.054 59.2738 8.04132 61.0229 6.35446C67.1186 0.503182 76.334 -1.34661 83.8434 0.996779C86.4216 1.79708 88.4919 2.95679 90.1308 4.40404C94.7888 8.50137 96.0635 14.9133 96.0013 22.1256C103.118 22.7246 110.086 24.2629 116.704 26.707C120.14 22.231 123.925 18.5842 128.373 16.8494C131.694 15.5459 135.384 15.3111 139.577 16.5762C147.115 18.843 153.407 25.4514 154.677 33.5694C154.735 33.9432 154.782 34.317 154.811 34.6908C155.19 38.8025 154.198 43.1299 152.152 46.8342C155.305 48.0754 157.969 49.0626 160.72 51.6791C165.953 56.6726 162.014 70.5844 146.755 73.8766C146.755 73.8766 146.755 73.8814 146.76 73.8862C146.794 73.9533 146.947 74.3223 147.201 74.9118C148.347 77.7248 151.308 85.5744 150.551 90.2708C159.776 79.0426 180.684 81.4963 183.454 91.8762C188.05 109.104 165.436 135.715 152.722 146.023C158.726 146.407 163.106 147.039 167.079 148.654C167.491 148.827 168.038 148.994 167.985 149.373V149.359Z" fill="#4DBF86"/>
<path d="M94.3767 39.0708C91.1803 42.042 85.9089 43.1155 83.4409 40.2785" stroke="#1F805F" stroke-width="2" stroke-miterlimit="10" stroke-linecap="round"/>
<path d="M94.3767 39.0708C95.522 42.7656 99.6529 45.3966 103.544 43.6139" stroke="#1F805F" stroke-width="2" stroke-miterlimit="10" stroke-linecap="round"/>
<path d="M145.9 47.1325C151.606 42.5416 151.85 33.3739 146.444 26.6557C141.039 19.9375 132.031 18.2129 126.326 22.8037C120.62 27.3945 120.376 36.5622 125.782 43.2805C131.187 49.9987 140.195 51.7233 145.9 47.1325Z" fill="#FFE699"/>
<g style="mix-blend-mode:soft-light" opacity="0.5">
<path d="M146.479 41.4609C146.91 37.0194 143.131 33.0186 138.039 32.5247C132.947 32.0308 128.47 35.2309 128.039 39.6723C127.608 44.1137 131.387 48.1146 136.479 48.6085C141.571 49.1024 146.048 45.9023 146.479 41.4609Z" fill="black"/>
</g>
<path d="M146.803 43.542C145.672 45.2049 139.974 42.7225 134.075 37.9926C128.176 33.2627 124.304 28.0775 125.435 26.4146C126.566 24.7517 132.264 27.2341 138.163 31.964C144.062 36.6939 147.934 41.8791 146.803 43.542Z" fill="#0C3326"/>
<path opacity="0.8" d="M142.85 30.4401C141.7 32.8314 137.914 33.3346 134.392 31.5615C130.869 29.7883 128.943 26.4146 130.093 24.0233C131.243 21.632 135.029 21.1288 138.551 22.9019C142.073 24.6751 144 28.0488 142.85 30.4401Z" fill="white"/>
<path opacity="0.8" d="M147.805 38.5293C146.583 39.0469 144.934 38.0118 144.129 36.2147C143.324 34.4176 143.66 32.5391 144.882 32.0215C146.104 31.504 147.752 32.5391 148.557 34.3362C149.362 36.1332 149.027 38.0118 147.805 38.5293Z" fill="white"/>
<path d="M80.0443 32.9994C87.5031 29.1579 90.7557 20.619 87.3092 13.9273C83.8628 7.23557 75.0223 4.92503 67.5635 8.76655C60.1048 12.6081 56.8521 21.147 60.2986 27.8387C63.7451 34.5304 72.5855 36.841 80.0443 32.9994Z" fill="#FFE699"/>
<g style="mix-blend-mode:soft-light" opacity="0.5">
<path d="M81.839 27.0859C82.2509 22.8394 78.6384 19.0142 73.7702 18.542C68.902 18.0698 64.6217 21.1295 64.2098 25.376C63.7979 29.6225 67.4104 33.4477 72.2786 33.9199C77.1468 34.3921 81.4271 31.3324 81.839 27.0859Z" fill="black"/>
</g>
<path d="M60.9511 24.6271C61.4351 26.6207 67.5835 26.5632 74.6808 24.4977C81.7781 22.4323 87.1405 19.1401 86.6565 17.1417C86.1725 15.1482 80.0241 15.2057 72.9269 17.2711C65.8296 19.3365 60.4671 22.6288 60.9511 24.6271Z" fill="#0C3326"/>
<path opacity="0.8" d="M70.8469 20.0697C73.9499 17.807 75.1645 14.1889 73.5599 11.9884C71.9552 9.78788 68.139 9.83831 65.0361 12.101C61.9331 14.3637 60.7185 17.9818 62.3232 20.1823C63.9278 22.3828 67.744 22.3324 70.8469 20.0697Z" fill="white"/>
<path opacity="0.8" d="M81.2988 11.5109C81.155 12.8431 79.4681 13.7057 77.5321 13.4373C75.596 13.1738 74.1392 11.8799 74.283 10.5476C74.4267 9.21541 76.1136 8.35281 78.0497 8.62118C79.9857 8.88475 81.4425 10.1786 81.2988 11.5109Z" fill="white"/>
<g style="mix-blend-mode:soft-light" opacity="0.5">
<path d="M121.41 152.397C102.514 153.183 83.6997 152.392 65.2832 150.02C65.2785 150.025 65.2737 150.025 65.2689 150.03C61.2099 142.122 57.7643 132.255 56.7867 122.34C54.0024 94.1477 66.9605 71.4901 85.7268 71.7297C104.493 71.9741 121.965 95.0294 124.75 123.227C125.799 133.861 124.323 144.245 121.414 152.397H121.41Z" fill="white"/>
</g>
<path d="M112.51 95.7387C112.577 93.1701 108.447 87.774 106.995 91.9145C106.242 94.0662 107.186 97.9527 109.736 98.5852C111.336 98.8488 112.721 97.2913 112.51 95.7387Z" fill="#4DBF86"/>
<path d="M116.287 100.632C116.138 99.6108 115.726 98.3265 114.523 98.5421C112.832 98.7482 113.057 101.13 113.685 102.223C114.782 103.655 116.526 102.314 116.287 100.632Z" fill="#4DBF86"/>
<path d="M111.533 102.673C111.547 102.002 110.905 101.274 110.201 101.47C107.977 102.443 111.552 105.539 111.533 102.673Z" fill="#4DBF86"/>
<path d="M83.4122 148.534C83.3259 148.304 83.2253 148.084 83.1055 147.873C83.0336 147.744 82.9617 147.619 82.8803 147.499C82.8371 147.432 82.794 147.37 82.7509 147.303C82.6406 147.14 82.4969 146.948 82.3148 146.857C82.2141 146.809 82.1087 146.747 81.9985 146.728C81.9074 146.713 81.8116 146.704 81.7205 146.689C81.5768 146.685 81.4426 146.713 81.318 146.78C81.2269 146.804 81.1503 146.852 81.088 146.915C80.973 146.987 80.8819 147.087 80.8196 147.207C80.6423 147.499 80.6135 147.84 80.695 148.17C80.7142 148.247 80.7333 148.319 80.7525 148.395C80.7909 148.539 80.834 148.673 80.8819 148.812C80.9634 149.042 81.04 149.272 81.1598 149.488C81.2413 149.641 81.3563 149.766 81.4809 149.886C81.6439 150.044 81.8116 150.159 82.032 150.221C82.1375 150.245 82.2429 150.26 82.3531 150.264C82.5065 150.269 82.655 150.236 82.7892 150.169C82.9282 150.125 83.0528 150.044 83.1534 149.934C83.2157 149.852 83.278 149.771 83.3403 149.689C83.4553 149.493 83.5032 149.277 83.4937 149.052C83.4889 148.879 83.4841 148.697 83.4266 148.534H83.4122Z" fill="#4DBF86"/>
<path d="M80.4889 143.737C80.4889 143.737 80.4698 143.713 80.4602 143.699C80.3979 143.594 80.3164 143.512 80.211 143.45C80.1056 143.388 79.9858 143.354 79.866 143.354C79.7414 143.354 79.6263 143.388 79.5161 143.45C79.4107 143.512 79.3292 143.594 79.2669 143.699C79.2573 143.713 79.2478 143.723 79.2382 143.737C79.1711 143.848 79.1423 143.972 79.1423 144.102C79.1423 144.231 79.1759 144.351 79.2382 144.466C79.3676 144.686 79.6072 144.82 79.8612 144.82C80.1152 144.82 80.3548 144.681 80.4842 144.466C80.5512 144.356 80.58 144.231 80.58 144.102C80.58 143.972 80.5465 143.852 80.4842 143.737H80.4889Z" fill="#4DBF86"/>
<path d="M65.8344 92.6525C65.8344 92.5183 65.8008 92.3985 65.7337 92.2835C65.6762 92.1014 65.5756 91.9432 65.4318 91.8139C65.3312 91.7372 65.2354 91.6605 65.1347 91.5838C65.0197 91.5359 64.8999 91.4832 64.7849 91.4353C64.5884 91.373 64.3967 91.3634 64.2002 91.4113C64.0038 91.4209 63.8217 91.4784 63.6539 91.5838C63.5677 91.6365 63.4862 91.6988 63.3999 91.7563C63.213 91.8953 63.1603 91.9193 63.0549 92.0343C62.9734 92.1253 62.8728 92.2691 62.7818 92.3889C62.7482 92.432 62.7195 92.4704 62.6907 92.5135C62.5613 92.7004 62.4798 92.8921 62.3984 93.1077C62.3792 93.1557 62.3648 93.1988 62.3457 93.2467C62.2977 93.3857 62.269 93.4959 62.2786 93.6732C62.2834 93.7164 62.2882 93.7643 62.2977 93.8074C62.2834 93.9464 62.2786 94.0854 62.3025 94.2243C62.3457 94.6604 62.6907 95.063 63.1076 95.1876C63.1747 95.2067 63.2035 95.2067 63.2993 95.2211C63.3999 95.2499 63.5006 95.2499 63.606 95.2211C63.7354 95.2163 63.8552 95.178 63.9702 95.1157C63.9702 95.1157 63.975 95.1157 63.9798 95.1157C64.1427 95.0486 64.1619 95.039 64.2578 94.9623L64.4159 94.8952C64.5213 94.8234 64.6172 94.7467 64.713 94.6652C64.7513 94.6317 64.7897 94.5981 64.8328 94.5646C64.9143 94.4975 64.9814 94.4208 65.0533 94.3441C65.0868 94.3106 65.1203 94.277 65.1539 94.2435C65.2881 94.1141 65.3695 94.0135 65.4941 93.8362C65.5516 93.7499 65.6092 93.6684 65.6715 93.587L65.82 93.2371C65.8823 93.0407 65.8919 92.849 65.844 92.6525H65.8344Z" fill="#4DBF86"/>
<path d="M130.151 114.069C126.446 134.172 117.044 148.026 113.474 153.188C115.515 153.724 117.585 154.458 119.143 155.555C119.296 155.665 119.382 155.833 119.339 156.025C119.253 156.422 118.75 156.581 118.333 156.676C117.408 156.892 116.483 157.108 115.558 157.323C115.927 158.215 116.172 159.235 116.565 160.103C116.651 160.294 116.656 160.524 116.536 160.745C116.22 161.33 115.472 161.325 114.921 161.243C113.354 161.004 111.859 160.611 110.474 160.079C110.282 161.08 110.114 161.89 109.683 163.036C109.539 163.424 109.51 163.85 108.983 164.104C108.734 164.224 108.456 164.267 108.212 164.238C107.67 164.176 107.344 163.85 107.033 163.539C105.236 161.723 103.956 157.922 102.576 155.78C102.25 155.277 102.375 154.673 102.648 154.084C105.006 148.999 111.332 144.624 125.703 92.7292L130.146 114.059L130.151 114.069Z" fill="#4DBF86"/>
<path d="M51.7932 118.756C53.111 123.476 66.7209 148.242 71.3502 152.124C69.2608 152.555 67.1091 153.154 65.3935 154.065C65.2257 154.156 65.1107 154.299 65.1155 154.462C65.1251 154.803 65.5899 154.942 65.9781 155.028C66.8407 155.22 67.7033 155.416 68.5659 155.608C68.0435 156.36 67.6218 157.223 67.0755 157.951C66.9557 158.114 66.9078 158.306 66.9845 158.497C67.1857 158.996 67.9189 159.005 68.47 158.938C70.0419 158.751 71.5706 158.435 73.0179 157.999C73.0226 158.847 73.037 159.542 73.2479 160.515C73.3198 160.846 73.267 161.205 73.7319 161.43C73.9523 161.536 74.2159 161.574 74.4603 161.55C74.997 161.502 75.3756 161.234 75.735 160.97C77.8196 159.451 79.6455 157.199 81.1406 155.1C81.4905 154.606 81.4425 154.065 81.2604 153.552C79.6551 149.109 69.4524 138.317 50.4082 88.3395C48.3524 82.9435 51.798 118.751 51.798 118.751L51.7932 118.756Z" fill="#4DBF86"/>
<path d="M134.511 102.165C133.371 107.005 132.134 111.84 130.697 116.709C129.968 119.182 129.139 121.665 128.167 124.137C127.208 126.577 126.101 128.997 125.047 131.426C124.98 131.58 125.171 131.661 125.267 131.498C128.09 126.739 130.218 121.617 131.938 116.695C133.673 111.735 134.67 106.732 134.765 102.093C134.765 101.949 134.55 102.016 134.511 102.165Z" fill="#43A674"/>
<path d="M124.922 90.6254C125.181 93.0742 124.754 95.6476 124.227 98.0054C124.146 98.3552 124.064 98.6955 123.969 99.0405C123.897 99.3472 123.806 99.6491 123.715 99.9558C123.552 100.521 123.379 101.077 123.197 101.638C122.833 102.774 122.593 103.938 122.037 105.016C122.023 105.045 121.965 105.026 121.975 104.992C122.176 103.751 122.641 102.572 122.866 101.331C123.015 100.521 123.144 99.7018 123.269 98.8871C123.322 98.5325 123.374 98.1779 123.422 97.8185C123.427 97.7706 123.437 97.7226 123.441 97.6747C123.767 95.317 123.877 92.8921 124.342 90.5631C124.395 90.2851 124.893 90.3522 124.922 90.6254Z" fill="#43A674"/>
<path d="M123.964 99.0405C123.892 99.3472 123.801 99.6491 123.71 99.9558C123.571 99.5964 123.417 99.2418 123.259 98.8871C123.139 98.6092 123.015 98.3265 122.89 98.0533C122.186 96.491 121.467 94.9432 120.758 93.3809C120.71 93.2707 120.897 93.1988 120.978 93.3042C121.975 94.6988 122.794 96.1604 123.437 97.6747C123.465 97.7514 123.499 97.8233 123.532 97.8999C123.686 98.2785 123.83 98.6571 123.964 99.0405Z" fill="#43A674"/>
<path d="M147.206 74.9022C143.391 74.8255 139.486 74.121 135.815 72.5444C135.753 72.5156 135.777 72.4438 135.839 72.4581C139.452 73.4214 143.181 73.9725 146.77 73.8766C146.799 73.9437 146.957 74.3127 147.206 74.9022Z" fill="#43A674"/>
<path d="M61.5118 60.607C59.3841 60.837 57.3234 60.631 55.2196 60.353C53.0919 60.0799 51.0552 59.5288 49.0856 58.7141C48.6687 58.5464 48.247 58.3595 47.8348 58.1678C48.0649 57.6311 48.2086 57.3196 48.2182 57.2621C48.2086 57.2573 48.199 57.2429 48.1895 57.2381C48.5968 57.4537 49.0137 57.655 49.4402 57.8419C51.3331 58.6758 53.3315 59.3562 55.349 59.8403C57.3474 60.3195 59.4607 60.4153 61.5118 60.4776C61.5885 60.4776 61.5933 60.5926 61.5118 60.6022V60.607Z" fill="#43A674"/>
<path d="M100.539 51.8564C98.9964 52.3117 97.5731 52.8532 95.9389 53.021C94.3192 53.1887 92.685 53.0737 91.0749 52.7909C87.8353 52.2254 85.0558 50.8165 82.3051 49.0338C82.262 49.0051 82.2236 49.0674 82.2524 49.1009C84.4281 51.6312 87.8928 53.088 91.1036 53.5673C92.7282 53.8069 94.3815 53.7781 95.9917 53.5625C97.5539 53.3564 99.3318 52.997 100.683 52.1775C100.851 52.0769 100.731 51.7989 100.539 51.8564Z" fill="#43A674"/>
<path d="M96.538 55.2397C95.7377 55.2925 94.9757 55.4554 94.1802 55.5704C93.3128 55.695 92.4311 55.7094 91.5493 55.6423C90.6915 55.58 89.8481 55.465 89.0094 55.2445C88.6021 55.1391 88.1995 55.0481 87.7874 54.9714C87.289 54.8755 86.8481 54.6695 86.4025 54.4346C86.3833 54.4251 86.3641 54.4538 86.3833 54.4634C87.1309 54.9282 87.8785 55.4841 88.7027 55.7956C89.5653 56.1263 90.4998 56.3324 91.4103 56.433C93.1211 56.6199 95.2105 56.5336 96.629 55.5321C96.744 55.4506 96.7105 55.2254 96.538 55.235V55.2397Z" fill="#43A674"/>
<path d="M57.0694 106.66C56.226 104.556 55.4161 102.443 54.7452 100.291C54.0887 98.1827 53.4801 96.055 53.0009 93.9128C52.512 91.742 52.2533 89.5376 51.774 87.3667C51.7549 87.2804 51.6207 87.3092 51.6207 87.3859C51.5153 89.6094 51.8747 91.9145 52.2533 94.1237C52.6223 96.285 53.0967 98.4319 53.7436 100.545C55.0423 104.786 56.7292 109.166 59.4512 112.885C59.5374 113.005 59.7627 112.928 59.7051 112.785C58.8809 110.729 57.9033 108.721 57.0742 106.665L57.0694 106.66Z" fill="#43A674"/>
<path d="M60.0357 135.183C59.5182 134.383 59.1108 133.525 58.6268 132.706C58.1716 131.939 57.6828 131.191 57.2515 130.41C56.3314 128.757 55.3394 127.137 54.6062 125.398C54.5966 125.378 54.563 125.383 54.5726 125.407C55.2004 127.19 55.7851 128.968 56.6956 130.64C57.146 131.469 57.6061 132.322 58.1572 133.094C58.7035 133.856 59.3505 134.541 59.9543 135.255C59.9926 135.303 60.0693 135.241 60.0357 135.193V135.183Z" fill="#43A674"/>
<path d="M61.6603 146.709C61.0517 146.004 60.4862 145.271 59.9399 144.523C59.7865 144.322 59.6427 144.121 59.4942 143.91C58.8808 143.047 58.2961 142.161 57.7067 141.274C56.4895 139.424 55.301 137.531 54.1892 135.61C52.1477 132.107 50.5184 128.369 49.0855 124.593C47.6622 120.835 46.4354 117.011 45.4674 113.139C44.7821 110.388 44.2118 107.599 43.7853 104.796C43.723 104.398 43.6655 103.996 43.6128 103.598C42.9802 98.9686 42.7598 94.3154 43.124 89.7628C43.124 89.6717 43.2582 89.7005 43.2582 89.782C43.3636 94.1285 43.6176 98.4654 44.1687 102.817C44.2454 103.445 44.3316 104.063 44.4179 104.691C44.4754 105.107 44.5425 105.524 44.6096 105.936C45.6687 112.617 47.4753 119.331 50.2069 125.58C51.8267 129.279 53.5806 132.883 55.4639 136.458C56.892 139.194 58.6412 141.696 60.3712 144.221C60.5341 144.456 60.697 144.691 60.86 144.935C61.2098 145.448 61.5596 145.961 61.9095 146.483C62.0293 146.656 61.7944 146.871 61.6507 146.709H61.6603Z" fill="#43A674"/>
<path d="M150.949 113.642C150.934 114.026 150.906 114.404 150.882 114.783C150.791 116.058 150.666 117.328 150.513 118.588C150.081 122.077 149.382 125.517 148.486 128.891C147.575 132.289 146.458 135.658 144.906 138.811C144.062 140.531 143.142 142.237 142.174 143.905C141.197 145.587 140.209 147.274 138.983 148.793C138.863 148.942 138.599 148.75 138.69 148.592C140.435 145.611 142.38 142.76 143.746 139.573C145.126 136.353 146.391 133.113 147.489 129.783C148.965 125.326 149.823 120.605 150.182 115.847C150.216 115.454 150.244 115.061 150.259 114.668C150.369 112.88 150.402 111.088 150.378 109.305C150.321 105.385 149.971 101.48 149.478 97.5693C149.463 97.4974 149.593 97.4782 149.612 97.5501C150.896 102.846 151.241 108.294 150.949 113.642Z" fill="#43A674"/>
<path d="M167.204 97.6268C164.19 100.066 161.29 102.601 158.587 105.357C155.76 108.246 153.139 111.404 150.877 114.788C150.632 115.142 150.402 115.497 150.177 115.856C150.211 115.463 150.239 115.07 150.254 114.677C150.479 114.332 150.714 113.987 150.944 113.652C151.351 113.058 151.768 112.478 152.19 111.903C156.273 106.358 161.204 101.264 167.113 97.5214C167.18 97.483 167.257 97.5885 167.199 97.6364L167.204 97.6268Z" fill="#43A674"/>
<path d="M44.6241 105.941C44.3509 105.558 44.0778 105.179 43.795 104.801C42.0938 102.524 40.2488 100.358 38.3127 98.3121C35.5764 95.4224 32.6532 92.7387 29.6149 90.151C29.5574 90.0982 29.6341 89.9976 29.6964 90.0455C35.102 93.7116 39.7169 98.4511 43.6225 103.598C43.9005 103.957 44.1688 104.326 44.4324 104.695C44.4899 105.112 44.5522 105.529 44.6241 105.941Z" fill="#43A674"/>
<path d="M151.715 146.383C150.263 147.073 148.893 147.868 147.35 148.347C145.807 148.827 144.225 148.994 142.62 149.119C142.505 149.129 142.505 149.287 142.62 149.301C144.264 149.483 145.96 149.21 147.546 148.755C149.085 148.314 150.68 147.686 151.874 146.594C151.989 146.488 151.84 146.325 151.715 146.387V146.383Z" fill="#43A674"/>
<path d="M60.8696 144.94C60.5581 144.811 60.2514 144.672 59.9399 144.528C59.1156 144.154 58.3153 143.737 57.5629 143.244C57.5438 143.229 57.5533 143.191 57.5773 143.201C58.2147 143.431 58.8568 143.675 59.4942 143.915C59.7865 144.02 60.0788 144.126 60.3808 144.231C60.5437 144.466 60.7066 144.701 60.8696 144.945V144.94Z" fill="#43A674"/>
<path d="M55.6892 145.247C55.1381 145.108 54.4816 145.237 53.9209 145.29C53.3314 145.348 52.7372 145.429 52.1525 145.534C50.9066 145.75 49.7708 146.153 48.6111 146.637C48.5728 146.651 48.5871 146.713 48.6303 146.699C49.7804 146.392 50.9737 146.196 52.143 145.99C52.7324 145.884 53.3266 145.803 53.9209 145.745C54.4863 145.693 55.1429 145.745 55.6892 145.578C55.8473 145.53 55.8569 145.29 55.6892 145.247Z" fill="#43A674"/>
<path d="M58.5118 147.365C58.1284 147.504 57.793 147.758 57.4575 147.983C57.0981 148.223 56.7531 148.477 56.4128 148.74C56.0822 148.994 55.7563 149.258 55.44 149.531C55.1045 149.819 54.8122 150.13 54.5199 150.461C54.4959 150.485 54.5295 150.538 54.5582 150.514C54.8889 150.274 55.2196 150.039 55.5311 149.78C55.8665 149.502 56.2115 149.229 56.5662 148.97C56.8968 148.726 57.2371 148.491 57.5725 148.252C57.9128 148.012 58.2962 147.806 58.6029 147.518C58.6652 147.461 58.6029 147.336 58.5166 147.37L58.5118 147.365Z" fill="#43A674"/>
<path d="M160.059 150.662C159.45 150.389 158.956 149.886 158.343 149.603C157.792 149.349 157.222 149.114 156.642 148.932C156.038 148.74 155.425 148.587 154.806 148.467C154.203 148.352 153.532 148.209 152.933 148.41C152.822 148.448 152.774 148.621 152.899 148.678C153.436 148.947 154.064 148.961 154.648 149.052C155.252 149.148 155.851 149.277 156.441 149.44C157.03 149.603 157.61 149.78 158.18 149.996C158.774 150.221 159.512 150.336 160.035 150.705C160.063 150.724 160.092 150.672 160.063 150.662H160.059Z" fill="#43A674"/>
<path d="M151.179 151.702C150.891 151.362 150.584 151.031 150.273 150.71C150.115 150.542 149.947 150.389 149.775 150.236C149.597 150.082 149.42 149.862 149.171 149.857C148.998 149.857 148.898 150.02 148.926 150.173C148.97 150.394 149.214 150.538 149.372 150.681C149.535 150.83 149.698 150.969 149.866 151.113C150.206 151.405 150.537 151.707 150.862 152.009C151.519 152.613 152.152 153.24 152.741 153.911C152.76 153.93 152.794 153.906 152.779 153.882C152.286 153.13 151.754 152.392 151.169 151.702H151.179Z" fill="#43A674"/>
<path d="M35.7392 81.0458C35.5571 80.878 35.3654 80.7103 35.1546 80.5857C34.9389 80.4563 34.6754 80.3796 34.431 80.3078C34.0811 80.2023 33.7361 80.1304 33.3767 80.0825C33.0364 80.0394 32.701 79.9963 32.3607 79.9819C32.0492 79.9675 31.7425 80.0058 31.4358 80.049C30.7266 80.1352 29.8161 80.2215 29.2698 80.7055C28.9151 80.8876 28.6372 81.132 28.4934 81.5633C28.388 81.8748 28.503 82.263 28.7378 82.4882C29.0158 82.7566 29.3416 82.8524 29.6963 82.8812C30.1755 83.0441 30.7266 83.0249 31.2346 83.0681C31.709 83.1447 32.193 83.2406 32.6531 83.37C32.9118 83.4419 33.1706 83.509 33.4246 83.5904C33.5444 83.6288 33.6594 83.6767 33.7792 83.715C34.0428 83.7965 34.3207 83.8013 34.5891 83.8061C35.2313 83.8252 35.8303 83.3844 36.0699 82.8093C36.3095 82.2342 36.2137 81.4771 35.7344 81.0362L35.7392 81.0458Z" fill="#43A674"/>
<path d="M38.8974 84.6639C38.8926 84.5249 38.8495 84.3907 38.7728 84.2709C38.7201 84.199 38.6626 84.1272 38.6098 84.0553C38.4805 83.9259 38.3223 83.8348 38.145 83.7821C38.0875 83.7629 38.0348 83.7438 37.9773 83.7246C37.8383 83.6815 37.7041 83.6767 37.5651 83.7054C37.4262 83.7102 37.3016 83.7534 37.1818 83.83C37.1099 83.8827 37.0428 83.9355 36.9709 83.993C36.8703 84.084 36.7984 84.199 36.7601 84.3236C36.7121 84.4051 36.6882 84.4914 36.6882 84.5824C36.6594 84.7214 36.6642 84.8556 36.7073 84.9945C36.7409 85.076 36.7744 85.1575 36.8128 85.2389C36.9038 85.3923 37.0284 85.5169 37.1818 85.6079C37.2297 85.6415 37.2824 85.675 37.3303 85.7134C37.4501 85.79 37.5843 85.8332 37.7233 85.838C37.8623 85.8715 38.006 85.8619 38.145 85.8188C38.2313 85.7853 38.3127 85.7469 38.399 85.7134C38.4852 85.6607 38.5619 85.5984 38.629 85.5265C38.629 85.5265 38.6386 85.5217 38.6386 85.5169C38.6961 85.4642 38.7392 85.3971 38.7776 85.33C38.7967 85.2965 38.8159 85.2581 38.8303 85.2198C38.8542 85.1766 38.8686 85.1335 38.8782 85.0904C38.8782 85.0904 38.8782 85.0904 38.8782 85.0856C38.9213 84.9466 38.9261 84.8029 38.8974 84.6639Z" fill="#43A674"/>
<path d="M31.9822 86.1734C31.9439 86.1015 31.9008 86.0345 31.8624 85.9674C31.8097 85.8763 31.7522 85.7853 31.6708 85.7086C31.5989 85.6367 31.4886 85.5696 31.4024 85.5025C31.3688 85.4786 31.3353 85.4498 31.297 85.4306C31.2586 85.4115 31.2203 85.3971 31.1819 85.3779L30.9328 85.2629C30.8321 85.2006 30.7267 85.1671 30.6117 85.1623C30.4967 85.1383 30.3816 85.1431 30.2666 85.1767C30.1564 85.2054 30.0558 85.2533 29.9743 85.33C29.8785 85.3923 29.8066 85.469 29.7539 85.5696C29.6484 85.7709 29.5957 86.0105 29.6676 86.2309C29.6964 86.298 29.7251 86.3699 29.7539 86.437C29.8305 86.5664 29.9312 86.667 30.0606 86.7437C30.1325 86.8012 30.2043 86.8539 30.281 86.9114C30.3146 86.9354 30.3481 86.9641 30.3816 86.9881C30.4152 87.0121 30.4583 87.0264 30.4967 87.0456C30.5973 87.0935 30.7075 87.151 30.8082 87.1798C30.9136 87.2085 31.0286 87.2133 31.1388 87.2181C31.2155 87.2181 31.297 87.2277 31.3736 87.2277C31.6228 87.2277 31.8576 87.0887 31.9822 86.8779C32.1116 86.6574 32.1068 86.3891 31.9822 86.1686V86.1734Z" fill="#43A674"/>
<path d="M22.0432 91.9049C22.0096 91.7084 21.9904 91.4976 21.9473 91.3011C21.9234 91.21 21.885 91.119 21.8515 91.0279C21.77 90.8171 21.6694 90.6062 21.5016 90.4433C21.4154 90.357 21.3004 90.2851 21.1997 90.2133C20.7924 89.9449 20.1694 90.0455 19.8387 90.3906C19.6662 90.5727 19.4937 90.7979 19.4506 91.0567C19.417 91.2484 19.3739 91.4592 19.3739 91.6509C19.3739 91.8522 19.3979 92.0583 19.4074 92.2595C19.4266 92.5662 19.4314 92.8729 19.4985 93.1748C19.5464 93.3809 19.6039 93.587 19.6519 93.7882C19.7333 94.1141 19.9633 94.3921 20.2557 94.555C20.3132 94.6125 20.3803 94.67 20.4569 94.7179C20.8164 94.9336 21.286 94.8569 21.5831 94.5742C21.6406 94.5167 21.6837 94.4544 21.7269 94.3921C21.9904 94.1524 22.1342 93.8026 22.1438 93.4528C22.1486 93.2419 22.1582 93.0263 22.163 92.8154C22.163 92.5231 22.0863 92.202 22.0384 91.9049H22.0432Z" fill="#43A674"/>
<path d="M133.63 99.6299C133.563 99.3951 133.467 99.1651 133.347 98.9542C133.155 98.6236 132.853 98.3936 132.494 98.2737C132.283 98.2067 132.134 98.2162 131.933 98.245C131.813 98.245 131.698 98.2785 131.593 98.336C131.425 98.3888 131.281 98.4846 131.157 98.614C130.831 98.868 130.773 99.2753 130.711 99.6443C130.673 99.8791 130.658 100.109 130.639 100.344C130.596 100.574 130.539 100.794 130.448 101.015C130.457 100.996 130.467 100.972 130.476 100.953C130.452 101.015 130.424 101.082 130.409 101.144C130.395 101.211 130.376 101.274 130.357 101.341C130.318 101.461 130.309 101.585 130.28 101.71C130.16 102.251 130.318 102.788 130.764 103.133C131.186 103.459 131.804 103.526 132.269 103.238C132.729 102.956 133.126 102.568 133.337 102.064C133.467 101.758 133.572 101.456 133.62 101.125C133.697 100.632 133.769 100.119 133.63 99.6251V99.6299Z" fill="#43A674"/>
<path d="M131.55 93.7355C131.531 93.6301 131.478 93.5199 131.416 93.4288C131.382 93.3761 131.344 93.3186 131.301 93.2659L131.291 93.2467C131.248 93.17 131.19 93.1078 131.118 93.0598C131.008 92.9736 130.86 92.9113 130.716 92.9161C130.596 92.9209 130.486 92.9496 130.38 93.0071C130.304 93.0502 130.242 93.1078 130.194 93.1796C130.184 93.1892 130.184 93.2084 130.174 93.218C130.117 93.2803 130.069 93.3474 130.026 93.4192C129.964 93.5103 129.911 93.6109 129.892 93.7212C129.858 93.8889 129.82 94.071 129.82 94.2387C129.82 94.4112 129.815 94.5933 129.873 94.7515C129.93 94.9096 129.983 95.063 130.05 95.2115C130.117 95.3265 130.213 95.4224 130.328 95.4895C130.448 95.5614 130.577 95.5949 130.721 95.5949C130.86 95.5949 130.989 95.5614 131.114 95.4895C131.229 95.4224 131.325 95.3265 131.392 95.2115C131.459 95.063 131.511 94.9144 131.569 94.7611C131.626 94.5933 131.626 94.4112 131.626 94.2339C131.626 94.0662 131.588 93.8889 131.555 93.7259L131.55 93.7355Z" fill="#43A674"/>
<path d="M58.2627 119.93C58.2291 119.824 58.1956 119.714 58.1668 119.609C58.1189 119.45 58.0758 119.254 57.9847 119.12C57.9224 119.029 57.8362 118.909 57.7691 118.837C57.6972 118.765 57.6013 118.708 57.5199 118.645C57.4336 118.593 57.3426 118.564 57.2467 118.559C57.1509 118.535 57.0502 118.54 56.9544 118.574C56.7819 118.631 56.595 118.741 56.5135 118.914C56.4656 119.014 56.4033 119.125 56.3841 119.23C56.3841 119.254 56.3745 119.283 56.3745 119.307C56.341 119.537 56.3266 119.604 56.3745 119.834C56.3985 119.958 56.4225 120.083 56.4512 120.208C56.4656 120.27 56.4752 120.332 56.4895 120.395C56.5135 120.524 56.5758 120.644 56.6285 120.768C56.686 120.898 56.7244 120.994 56.8346 121.104C57.0982 121.367 57.5822 121.463 57.908 121.243C58.0422 121.166 58.1477 121.056 58.2243 120.926C58.3058 120.788 58.3441 120.639 58.3441 120.481C58.3298 120.299 58.325 120.112 58.2722 119.939L58.2627 119.93Z" fill="#43A674"/>
<path d="M162.038 132.926C161.861 132.696 161.607 132.495 161.319 132.433C161.194 132.418 161.075 132.399 160.95 132.385C160.701 132.385 160.466 132.447 160.25 132.572C160.04 132.672 159.819 132.763 159.618 132.883C159.321 133.065 159.057 133.343 158.803 133.583C158.631 133.746 158.458 133.904 158.3 134.081C158.223 134.167 158.147 134.258 158.07 134.349C157.917 134.532 157.715 134.776 157.634 135.025C157.562 135.169 157.504 135.313 157.485 135.466C157.485 135.466 157.485 135.471 157.485 135.476C157.428 135.663 157.447 135.869 157.5 136.055C157.519 136.175 157.562 136.286 157.648 136.396C157.739 136.511 157.845 136.587 157.964 136.635C158.123 136.717 158.3 136.784 158.477 136.774C158.487 136.774 158.501 136.774 158.516 136.774C158.688 136.793 158.861 136.76 159.028 136.722C159.364 136.678 159.714 136.482 160.006 136.324C160.222 136.204 160.418 136.07 160.619 135.931C160.859 135.763 161.099 135.6 161.329 135.418C161.439 135.332 161.511 135.279 161.592 135.174C161.626 135.131 161.659 135.087 161.693 135.044C161.77 134.944 161.851 134.843 161.928 134.742C162.062 134.618 162.158 134.469 162.215 134.297C162.301 134.134 162.34 133.952 162.335 133.765C162.321 133.453 162.23 133.175 162.038 132.926Z" fill="#43A674"/>
<path d="M161.645 129.136C161.621 129.083 161.597 129.025 161.578 128.973C161.535 128.891 161.477 128.829 161.4 128.781C161.357 128.738 161.309 128.709 161.252 128.695C161.17 128.652 161.084 128.632 160.988 128.637L160.806 128.661C160.691 128.695 160.591 128.752 160.504 128.834C160.471 128.858 160.437 128.886 160.404 128.91C160.313 128.949 160.231 128.997 160.155 129.073C160.078 129.15 160.03 129.231 159.982 129.322C159.944 129.394 159.901 129.461 159.862 129.533C159.781 129.677 159.752 129.85 159.771 130.013C159.771 130.022 159.771 130.027 159.766 130.036C159.747 130.128 159.742 130.233 159.766 130.324C159.8 130.439 159.867 130.535 159.958 130.607C159.992 130.64 160.03 130.664 160.078 130.674C160.121 130.698 160.164 130.712 160.212 130.712C160.26 130.727 160.308 130.727 160.356 130.712C160.423 130.712 160.49 130.688 160.547 130.65C160.595 130.65 160.648 130.645 160.701 130.631C160.825 130.597 160.936 130.53 161.031 130.439C161.094 130.386 161.151 130.329 161.214 130.276C161.295 130.204 161.353 130.151 161.415 130.046C161.463 129.965 161.487 129.883 161.506 129.797C161.53 129.749 161.549 129.706 161.573 129.658C161.621 129.581 161.65 129.495 161.654 129.404C161.674 129.313 161.669 129.222 161.64 129.131L161.645 129.136Z" fill="#43A674"/>
<path d="M179.764 100.785C179.774 100.651 179.736 100.517 179.716 100.382C179.702 100.301 179.692 100.219 179.678 100.138C179.673 100.1 179.668 100.056 179.659 100.018C179.635 99.9271 179.577 99.8264 179.544 99.7402C179.534 99.721 179.529 99.7066 179.52 99.6875C179.505 99.6539 179.491 99.6204 179.477 99.5868C179.472 99.5676 179.462 99.5533 179.453 99.5341C179.4 99.467 179.352 99.4047 179.299 99.3376C179.232 99.2849 179.16 99.2322 179.093 99.1795C178.945 99.0932 178.787 99.0501 178.614 99.0501C178.442 99.0501 178.283 99.0932 178.135 99.1795C178.097 99.2082 178.063 99.237 178.025 99.2609C177.953 99.3041 177.895 99.3616 177.852 99.4335C177.804 99.4958 177.785 99.5149 177.761 99.5724C177.747 99.606 177.732 99.6395 177.718 99.6731C177.675 99.7785 177.593 99.9223 177.574 100.013C177.565 100.052 177.56 100.095 177.555 100.133C177.541 100.21 177.531 100.286 177.517 100.363C177.498 100.497 177.469 100.632 177.464 100.766C177.478 100.871 177.493 100.977 177.507 101.082C177.526 101.13 177.545 101.178 177.569 101.226C177.579 101.269 177.593 101.317 177.603 101.36L177.708 101.609C177.775 101.734 177.867 101.83 177.977 101.906C178.044 101.973 178.121 102.016 178.207 102.04C178.331 102.108 178.466 102.136 178.609 102.131C178.7 102.117 178.796 102.108 178.887 102.093L179.136 101.988C179.261 101.921 179.357 101.83 179.434 101.719C179.525 101.619 179.587 101.499 179.62 101.36C179.625 101.336 179.635 101.307 179.64 101.283C179.673 101.221 179.697 101.154 179.716 101.082C179.731 100.981 179.745 100.881 179.759 100.775L179.764 100.785Z" fill="#43A674"/>
<path d="M159.244 99.4239C159.21 99.3376 159.172 99.2561 159.139 99.1699C159.071 99.0453 158.98 98.9447 158.865 98.8728C158.798 98.8057 158.722 98.7625 158.631 98.7338C158.549 98.6859 158.458 98.6619 158.362 98.6619C158.266 98.638 158.175 98.638 158.079 98.6619C157.936 98.6667 157.806 98.7098 157.682 98.7865C157.548 98.8584 157.418 98.9303 157.303 99.0453C157.26 99.0884 157.222 99.1363 157.183 99.1795C157.044 99.3424 156.91 99.5149 156.79 99.6922C156.757 99.7402 156.723 99.7881 156.69 99.8408C156.656 99.8983 156.632 99.9654 156.604 100.023C156.58 100.076 156.556 100.133 156.527 100.186C156.484 100.282 156.431 100.382 156.402 100.483C156.383 100.56 156.373 100.641 156.373 100.727C156.373 100.732 156.373 100.737 156.373 100.742C156.311 101.024 156.369 101.307 156.58 101.513C156.68 101.614 156.795 101.681 156.929 101.719C157.068 101.758 157.212 101.758 157.351 101.719C157.394 101.705 157.437 101.686 157.485 101.671C157.519 101.667 157.548 101.671 157.581 101.657C157.677 101.628 157.782 101.58 157.873 101.523C157.921 101.489 157.969 101.461 158.017 101.427C158.195 101.312 158.362 101.178 158.525 101.034C158.621 100.948 158.712 100.857 158.798 100.761C158.894 100.646 159.009 100.531 159.081 100.401C159.153 100.282 159.201 100.119 159.254 99.9798L159.292 99.697L159.254 99.4143L159.244 99.4239Z" fill="#43A674"/>
<path d="M47.6622 131.604C47.6191 131.508 47.5808 131.407 47.5376 131.311C47.4753 131.23 47.4082 131.148 47.3459 131.062C47.3459 131.057 47.3364 131.052 47.3316 131.048C47.322 131.038 47.3124 131.024 47.3028 131.014C47.2597 130.966 47.2213 130.923 47.1782 130.875C47.0967 130.784 47.0201 130.693 46.9386 130.607C46.9003 130.564 46.8619 130.52 46.8236 130.477C46.7853 130.434 46.7373 130.396 46.6942 130.362C46.6463 130.324 46.5984 130.281 46.5504 130.243C46.5121 130.209 46.469 130.175 46.4258 130.147C46.354 130.075 46.2725 130.027 46.1766 129.998C46.1 129.965 46.076 129.945 46.0137 129.936C45.985 129.931 45.961 129.926 45.9322 129.921C45.7453 129.869 45.5584 129.869 45.3716 129.921C45.2326 129.955 45.1128 130.017 45.0121 130.108C44.8971 130.185 44.8061 130.281 44.739 130.405C44.6431 130.568 44.5952 130.746 44.5952 130.937C44.5952 130.961 44.5952 130.981 44.5952 131.005C44.5952 131.014 44.5952 131.028 44.5952 131.038L44.6336 131.34C44.6719 131.431 44.7102 131.522 44.7486 131.613C44.7773 131.666 44.8109 131.719 44.8396 131.771C44.945 131.958 45.084 132.121 45.2182 132.289C45.2901 132.38 45.362 132.471 45.4339 132.567C45.4722 132.615 45.5105 132.663 45.5489 132.715C45.568 132.739 45.5824 132.763 45.6016 132.782C45.6351 132.826 45.6783 132.864 45.731 132.888C45.8076 132.965 45.8987 133.017 45.9993 133.046C46.0952 133.103 46.1958 133.127 46.306 133.127C46.3635 133.147 46.421 133.151 46.4833 133.147C46.5888 133.132 46.6942 133.118 46.8044 133.103C46.9626 133.065 47.0967 132.993 47.2118 132.888C47.3028 132.835 47.3747 132.763 47.4274 132.672C47.5328 132.557 47.6047 132.418 47.6431 132.265C47.6431 132.265 47.6431 132.255 47.6431 132.25C47.6574 132.14 47.6718 132.035 47.6862 131.925C47.6718 131.814 47.6574 131.709 47.6431 131.599L47.6622 131.604Z" fill="#43A674"/>
<path d="M61.1715 84.2422C61.114 84.0696 61.0181 83.9211 60.8839 83.7917C60.7881 83.7198 60.697 83.6479 60.6012 83.5713C60.4431 83.4706 60.2657 83.4131 60.0836 83.4035C59.959 83.37 59.8344 83.37 59.7146 83.4035C59.5277 83.4131 59.3552 83.4658 59.1971 83.5713C59.1012 83.6431 59.0102 83.715 58.9143 83.7917C58.7418 83.9642 58.622 84.1703 58.5549 84.4099C58.4064 84.7789 58.3584 85.1671 58.3345 85.56C58.3249 85.6894 58.3153 85.8188 58.3057 85.9482C58.2818 86.2836 58.3824 86.6431 58.5741 86.9258C58.5741 86.9354 58.5837 86.9402 58.5885 86.9498C58.6891 87.1223 58.8281 87.2565 58.9958 87.3571C59.1252 87.4386 59.269 87.4865 59.4175 87.4913C59.5709 87.5248 59.7194 87.52 59.8728 87.4721C59.983 87.4386 60.0836 87.3906 60.1795 87.3283C60.1939 87.3235 60.213 87.314 60.2274 87.3092C60.3137 87.2421 60.3951 87.1798 60.4814 87.1127C60.5054 87.0935 60.5245 87.0696 60.5437 87.0456C60.6252 86.9498 60.7306 86.8347 60.7929 86.7293C60.86 86.6095 60.9079 86.4705 60.951 86.3411C60.999 86.2118 61.0469 86.0776 61.09 85.9482C61.1379 85.814 61.1811 85.6894 61.205 85.5504C61.2481 85.2964 61.2913 85.0377 61.3009 84.7789C61.3104 84.5872 61.2673 84.4051 61.1811 84.2422H61.1715Z" fill="#43A674"/>
<path d="M57.0934 82.5074V82.3972C57.0934 82.1528 56.964 81.9227 56.7484 81.7981C56.6429 81.7358 56.5231 81.7023 56.3985 81.7023C56.2739 81.7023 56.1589 81.7358 56.0487 81.7981C56.0152 81.8125 55.9816 81.8317 55.9433 81.8461C55.8666 81.8796 55.8043 81.9323 55.7468 81.9898C55.6701 82.0617 55.6174 82.1432 55.5839 82.2438C55.5359 82.3397 55.512 82.4355 55.5168 82.5457C55.5168 82.5553 55.5168 82.5649 55.5168 82.5745C55.5168 82.6464 55.512 82.7182 55.5072 82.7901C55.4976 83.0106 55.6366 83.231 55.8235 83.3412C55.9241 83.3987 56.0295 83.4275 56.1445 83.4275C56.2596 83.4275 56.365 83.3987 56.4656 83.3412C56.5327 83.3077 56.5998 83.2694 56.6669 83.2358C56.6765 83.2358 56.6861 83.2262 56.6956 83.2214C56.7484 83.1783 56.8011 83.14 56.8538 83.0968C56.9065 83.0489 56.9496 82.9962 56.9784 82.9339C57.0071 82.8716 57.0359 82.8093 57.0599 82.7422C57.0694 82.6751 57.079 82.6032 57.0886 82.5361C57.0886 82.5266 57.0886 82.517 57.0886 82.5074H57.0934Z" fill="#43A674"/>
<path d="M120.695 84.1176C120.686 83.8971 120.643 83.6671 120.6 83.4515C120.571 83.3029 120.542 83.1495 120.513 83.001C120.456 82.7135 120.403 82.4259 120.346 82.1384C120.293 81.8509 120.235 81.5633 120.178 81.2758C120.149 81.1368 120.116 81.0074 120.063 80.8732C119.991 80.6768 119.919 80.4515 119.809 80.2742C119.751 80.1784 119.684 80.0969 119.612 80.0202C119.387 79.6896 119.09 79.3829 118.707 79.2726C118.467 79.1528 118.213 79.0905 117.906 79.1337C117.542 79.1816 117.264 79.3445 117.034 79.5937C116.79 79.8094 116.627 80.1065 116.521 80.418C116.382 80.7151 116.339 81.0601 116.32 81.3812C116.311 81.5394 116.32 81.6831 116.339 81.8365C116.373 82.1288 116.411 82.4163 116.445 82.7087C116.478 82.9866 116.512 83.2646 116.545 83.5377L116.598 83.993C116.622 84.2038 116.632 84.4962 116.684 84.6591C116.766 84.9179 116.89 85.1623 117.053 85.3779C117.058 85.3875 117.063 85.3971 117.068 85.4067C117.466 86.0584 118.199 86.4082 118.951 86.3076C119.67 86.2118 120.346 85.6846 120.523 84.9562C120.537 84.9083 120.547 84.8556 120.561 84.8029C120.643 84.5824 120.7 84.3476 120.691 84.1176H120.695Z" fill="#43A674"/>
<path d="M121.932 77.3318C121.913 77.2408 121.87 77.1497 121.831 77.0634C121.822 77.0395 121.812 77.0155 121.803 76.9916C121.726 76.8047 121.673 76.6609 121.525 76.5123C121.405 76.3925 121.352 76.3638 121.237 76.3159C121.16 76.2823 121.088 76.2536 121.012 76.22C120.887 76.1817 120.763 76.1769 120.638 76.2056C120.552 76.2056 120.475 76.2248 120.403 76.2679C120.288 76.3063 120.188 76.3686 120.101 76.4596C120.01 76.5411 119.953 76.5986 119.881 76.7232C119.766 76.9197 119.747 77.1114 119.732 77.3366C119.728 77.4324 119.713 77.5331 119.723 77.6289C119.737 77.7631 119.742 77.9308 119.775 78.0506C119.823 78.2184 119.871 78.295 119.953 78.4148C120.005 78.4915 120.058 78.5682 120.116 78.6449C120.164 78.7072 120.216 78.7743 120.264 78.8366C120.327 78.8845 120.394 78.9372 120.456 78.9851L120.681 79.081C120.806 79.1193 120.93 79.1241 121.06 79.1001C121.146 79.1001 121.223 79.0762 121.299 79.0378C121.381 79.0139 121.448 78.9755 121.51 78.918C121.582 78.8749 121.64 78.8174 121.678 78.7503C121.759 78.6592 121.817 78.5538 121.846 78.4292C121.87 78.3478 121.898 78.2615 121.922 78.18C121.965 78.0411 121.999 77.926 121.999 77.7631C121.999 77.6289 121.961 77.4804 121.932 77.3462V77.3318Z" fill="#43A674"/>
<path d="M131.948 145.218C131.924 145.113 131.876 145.022 131.804 144.94C131.766 144.878 131.718 144.83 131.655 144.792C131.603 144.739 131.545 144.705 131.473 144.686C131.411 144.648 131.339 144.629 131.267 144.629C131.157 144.605 131.051 144.61 130.941 144.643C130.826 144.681 130.706 144.734 130.601 144.801C130.496 144.864 130.381 144.94 130.294 145.027C130.198 145.118 130.122 145.233 130.05 145.338C130.012 145.386 129.978 145.439 129.949 145.496C129.921 145.549 129.892 145.602 129.873 145.654C129.834 145.741 129.782 145.841 129.758 145.937C129.734 146.042 129.724 146.148 129.714 146.253C129.71 146.311 129.705 146.368 129.7 146.426C129.7 146.459 129.7 146.493 129.7 146.522C129.7 146.598 129.714 146.689 129.734 146.766C129.767 146.919 129.863 147.034 129.959 147.149C130.036 147.231 130.122 147.288 130.227 147.322C130.328 147.375 130.433 147.399 130.548 147.394C130.62 147.384 130.697 147.375 130.769 147.365C130.908 147.327 131.032 147.255 131.133 147.149C131.282 147.025 131.334 146.848 131.392 146.67C131.397 146.661 131.401 146.646 131.411 146.632C131.44 146.579 131.464 146.522 131.483 146.469C131.535 146.349 131.598 146.239 131.679 146.134C131.636 146.191 131.593 146.249 131.55 146.301C131.627 146.205 131.689 146.119 131.751 146.019C131.775 145.975 131.804 145.932 131.837 145.894L131.708 146.062C131.761 145.99 131.823 145.923 131.871 145.851C131.9 145.784 131.924 145.721 131.952 145.654C131.962 145.582 131.972 145.511 131.981 145.439C131.972 145.367 131.962 145.295 131.952 145.223L131.948 145.218Z" fill="#43A674"/>
<path d="M136.792 141.183C136.745 141.006 136.654 140.852 136.524 140.723L136.467 140.656C136.356 140.546 136.227 140.474 136.078 140.431C135.925 140.388 135.767 140.388 135.614 140.431C135.575 140.44 135.542 140.445 135.503 140.455C135.326 140.503 135.173 140.594 135.043 140.723C134.914 140.852 134.823 141.006 134.775 141.183C134.737 141.303 134.698 141.423 134.67 141.543C134.655 141.6 134.641 141.658 134.626 141.715C134.617 141.749 134.612 141.777 134.602 141.811C134.593 141.859 134.583 141.907 134.583 141.955C134.559 142.036 134.559 142.122 134.583 142.204C134.583 142.261 134.588 142.319 134.593 142.381L134.626 142.616L134.717 142.827C134.765 142.884 134.809 142.947 134.856 143.004C134.938 143.09 135.029 143.153 135.139 143.186C135.206 143.225 135.283 143.249 135.364 143.249C135.441 143.268 135.523 143.268 135.599 143.249C135.681 143.249 135.753 143.229 135.824 143.186C135.935 143.153 136.031 143.09 136.107 143.004C136.15 142.956 136.189 142.904 136.232 142.856C136.285 142.808 136.332 142.76 136.371 142.697C136.409 142.664 136.438 142.63 136.452 142.587C136.467 142.563 136.476 142.535 136.486 142.506L136.562 142.328C136.649 142.137 136.725 141.94 136.797 141.739C136.845 141.552 136.845 141.37 136.797 141.183H136.792Z" fill="#43A674"/>
<path d="M52.2436 62.7443C52.2436 62.7443 52.2244 62.6964 52.2148 62.6772C52.1478 62.5622 52.0567 62.4712 51.9369 62.3993C51.8506 62.3418 51.7548 62.313 51.6494 62.3082C51.5487 62.2843 51.4433 62.2891 51.3427 62.3226C51.2468 62.3514 51.1653 62.3945 51.0887 62.452C50.9162 62.5335 50.7676 62.6581 50.6813 62.8162C50.5472 63.075 50.4226 63.3434 50.3363 63.6261C50.298 63.7459 50.298 63.8993 50.2836 64.0286C50.2692 64.1293 50.274 64.1964 50.2884 64.3018C50.3075 64.4408 50.3315 64.575 50.3507 64.7139C50.3794 64.7858 50.4082 64.8529 50.4369 64.9248C50.4801 64.9823 50.528 65.0446 50.5711 65.1021C50.6286 65.1452 50.6909 65.1932 50.7484 65.2363C50.8491 65.2986 50.9545 65.3369 51.0743 65.3417C51.151 65.3609 51.2276 65.3609 51.3043 65.3417C51.381 65.3417 51.4577 65.3225 51.5248 65.2842C51.5966 65.265 51.6637 65.2267 51.7165 65.174C51.8123 65.1117 51.8842 65.0302 51.9417 64.9296C52.004 64.8481 52.0711 64.7666 52.1286 64.6804C52.1861 64.5989 52.2196 64.4791 52.2532 64.3881C52.2628 64.3641 52.2723 64.3401 52.2819 64.321C52.3011 64.2731 52.3251 64.2203 52.3346 64.1676C52.3442 64.1197 52.349 64.0718 52.3538 64.0191C52.373 63.8849 52.4065 63.7363 52.4113 63.6069C52.4161 63.5015 52.4113 63.3961 52.4161 63.2954C52.4161 63.1038 52.349 62.9121 52.234 62.7491L52.2436 62.7443Z" fill="#43A674"/>
<path d="M50.2788 53.8212C50.2692 53.596 50.2021 53.39 50.0823 53.1983C49.9769 52.9682 49.8523 52.7574 49.651 52.5849C49.5696 52.5178 49.4929 52.4507 49.4114 52.3836C49.2341 52.235 49.052 52.0865 48.8699 51.9427C48.592 51.7223 48.3284 51.4779 48.0169 51.3149C47.5568 51.0705 47.0249 50.807 46.4882 50.9411C46.2007 50.9891 45.8987 51.1184 45.7119 51.3293C45.4818 51.5833 45.2614 51.9571 45.3045 52.3117C45.3045 52.3261 45.3045 52.3405 45.3093 52.3596C45.3045 52.5178 45.3141 52.6759 45.362 52.8388C45.4004 52.9826 45.4914 53.1695 45.5777 53.3181C45.6352 53.4187 45.7023 53.5098 45.7694 53.6008C45.8987 53.7925 46.0329 53.9842 46.1959 54.1471C46.2821 54.2334 46.3636 54.3148 46.4499 54.4011C46.608 54.5592 46.7661 54.7174 46.9339 54.8707C47.0201 54.9522 47.1064 55.0337 47.1974 55.1151C47.4802 55.3691 47.6862 55.4937 48.0504 55.6135C48.1032 55.6279 48.1511 55.6471 48.2038 55.6615C48.3524 55.6806 48.5009 55.6998 48.6495 55.719C48.798 55.6998 48.9466 55.6806 49.0951 55.6615C49.2293 55.604 49.3635 55.5512 49.4977 55.4937C49.6942 55.3883 49.8475 55.2445 49.9673 55.0624C50.0728 54.957 50.1446 54.8324 50.183 54.6934C50.2596 54.564 50.298 54.4203 50.298 54.2717C50.3363 54.1232 50.3363 53.9746 50.298 53.826L50.2788 53.8212Z" fill="#43A674"/>
<path d="M46.6128 49.2399L46.5745 48.962C46.5266 48.7846 46.4355 48.6313 46.3061 48.5019C46.263 48.4636 46.2247 48.4252 46.1815 48.3869C46.1624 48.3677 46.1432 48.3486 46.124 48.3342C46.057 48.2815 45.9947 48.2335 45.9276 48.1808L45.6927 48.085C45.6592 48.0754 45.6304 48.0754 45.5969 48.0706C45.5729 48.061 45.549 48.0514 45.525 48.0419C45.3813 48.0035 45.2375 48.0035 45.0937 48.0419C44.9883 48.0658 44.8972 48.1137 44.8158 48.1856C44.7295 48.2431 44.6576 48.3198 44.6049 48.4109C44.5474 48.5067 44.5234 48.6073 44.5091 48.7176C44.4851 48.7751 44.4707 48.8326 44.4707 48.8949C44.4468 48.9811 44.4468 49.0674 44.4707 49.1536C44.4803 49.2303 44.4899 49.2878 44.5091 49.3597C44.5234 49.4124 44.5378 49.4651 44.5522 49.5226C44.5857 49.6568 44.648 49.7766 44.7391 49.8773C44.811 49.9923 44.9116 50.0785 45.0314 50.1456C45.1129 50.1792 45.1991 50.2175 45.2806 50.2511C45.3765 50.275 45.4723 50.2894 45.5681 50.2894C45.5969 50.299 45.6304 50.3086 45.6592 50.3182C45.8173 50.3517 46.009 50.3469 46.1528 50.2559C46.2918 50.1648 46.402 50.0402 46.4451 49.8725C46.4547 49.8341 46.4643 49.7958 46.4739 49.7575C46.4739 49.7431 46.4739 49.7335 46.4787 49.7191C46.4882 49.6952 46.5026 49.676 46.5122 49.652C46.5793 49.5274 46.6081 49.3933 46.6033 49.2495L46.6128 49.2399Z" fill="#43A674"/>
<path d="M146.027 70.0093C145.998 69.9758 145.974 69.9422 145.946 69.9135C145.74 69.6834 145.419 69.5636 145.117 69.5636C144.896 69.5636 144.681 69.602 144.465 69.6499C144.407 69.6643 144.35 69.6739 144.288 69.6882C144.139 69.7218 144.014 69.7793 143.871 69.8416C143.76 69.8895 143.645 69.9374 143.535 69.9854C143.401 70.0668 143.291 70.1723 143.209 70.3112C143.19 70.3448 143.176 70.3879 143.161 70.4214C143.099 70.5269 143.056 70.6467 143.066 70.7809C143.075 70.9821 143.137 71.193 143.291 71.332C143.411 71.4805 143.569 71.6003 143.751 71.6387C143.875 71.6674 143.995 71.6914 144.115 71.7201C144.326 71.7681 144.537 71.7728 144.752 71.7824C144.81 71.7824 144.872 71.792 144.934 71.7824C145.078 71.7728 145.289 71.7489 145.409 71.7201C145.701 71.6435 145.955 71.4518 146.104 71.1882C146.123 71.1499 146.147 71.1163 146.166 71.078C146.262 70.9055 146.295 70.7138 146.272 70.5173C146.243 70.316 146.161 70.1675 146.027 70.0093Z" fill="#43A674"/>
<path d="M107.038 29.0791C106.731 28.5567 106.252 28.2836 105.701 28.0871C105.413 27.9865 105.111 27.9146 104.814 27.8379C104.22 27.6894 103.621 27.5408 103.017 27.4497C102.279 27.3347 101.522 27.2101 100.77 27.191C99.8159 27.167 98.8478 27.1766 98.1002 27.8523C97.6258 28.2788 97.4293 29.2756 97.8463 29.8123C98.0811 30.1142 98.2584 30.349 98.6034 30.5311C98.843 30.6557 99.1018 30.7755 99.3558 30.857C99.6242 30.9433 99.9069 30.996 100.18 31.0631C100.77 31.2116 101.373 31.3266 101.968 31.4608C102.567 31.595 103.166 31.7148 103.765 31.8634C104.22 31.9784 104.67 32.1269 105.15 32.1461C106.209 32.1844 107.148 31.4704 107.292 30.4017C107.354 29.9369 107.273 29.4864 107.038 29.0791Z" fill="#43A674"/>
<path d="M108.284 35.2658C108.226 35.0837 108.125 34.9304 107.982 34.7962C107.838 34.6716 107.718 34.571 107.555 34.4991C107.502 34.4751 107.445 34.4512 107.392 34.4272L107.066 34.2834C106.903 34.2116 106.755 34.1397 106.582 34.1061C106.525 34.0965 106.467 34.087 106.41 34.0726C106.276 34.0486 106.132 34.0151 105.998 34.0151C105.988 34.0151 105.979 34.0151 105.974 34.0151C105.792 34.0103 105.624 34.0438 105.466 34.1301C105.279 34.2068 105.308 34.1924 105.154 34.317C105.102 34.3409 105.054 34.3793 105.02 34.4224C104.867 34.5758 104.761 34.7579 104.699 34.9687C104.68 35.031 104.651 35.261 104.651 35.3233C104.651 35.3856 104.661 35.4479 104.675 35.5102C104.685 35.6875 104.737 35.8505 104.833 36.0038C104.915 36.1332 105.02 36.253 105.13 36.3585C105.293 36.507 105.451 36.6652 105.648 36.7754C105.744 36.8281 105.835 36.8808 105.931 36.9335C106.132 37.0485 106.343 37.1827 106.568 37.2306C106.697 37.2498 106.827 37.2642 106.956 37.2834C107.157 37.2929 107.344 37.2498 107.517 37.1588C107.641 37.1252 107.747 37.0629 107.838 36.9719C107.996 36.8712 108.121 36.7323 108.212 36.5645C108.26 36.4495 108.308 36.3345 108.36 36.2147C108.379 36.0853 108.394 35.9559 108.413 35.8265C108.423 35.6253 108.379 35.4384 108.288 35.2658H108.284Z" fill="#43A674"/>
<path d="M94.4725 32.8026L94.3623 32.5391C94.2665 32.3761 94.1323 32.242 93.9694 32.1461C93.8687 32.079 93.7633 32.0167 93.6531 31.964C93.6243 31.9496 93.5956 31.9353 93.5668 31.9257C93.2649 31.7963 93.2505 31.7867 92.9151 31.7531C92.8576 31.7484 92.8 31.7436 92.7425 31.7388C92.5269 31.7292 92.3065 31.7675 92.0956 31.8107C92.0381 31.8202 91.9854 31.8346 91.9279 31.849C91.7026 31.9161 91.5157 32.0455 91.3576 32.2132C91.233 32.3378 91.1467 32.4864 91.0988 32.6589C91.0557 32.7931 91.0509 32.9272 91.0796 33.0614C91.0844 33.1956 91.1276 33.3202 91.1995 33.4352C91.2905 33.5886 91.4103 33.7084 91.5589 33.7946C91.6355 33.8425 91.7026 33.8713 91.7937 33.9096C91.9039 33.9671 92.0189 33.9911 92.1435 33.9959C92.2681 34.0151 92.3879 34.039 92.5077 34.0678C92.6802 34.1061 92.8528 34.1349 93.0301 34.1397C93.0684 34.1397 93.102 34.1445 93.1403 34.1493C93.2793 34.1876 93.4182 34.1972 93.5572 34.1636C93.7058 34.1588 93.84 34.1157 93.9646 34.0342C94.0364 33.9767 94.1131 33.9192 94.185 33.8617C94.2904 33.7611 94.3671 33.6461 94.4102 33.5071C94.4582 33.4208 94.4869 33.3298 94.4869 33.2291C94.5204 33.0854 94.5109 32.9368 94.4677 32.7931L94.4725 32.8026Z" fill="#43A674"/>
<path d="M94.0748 13.6722C94.0653 13.6242 94.0557 13.5715 94.0461 13.5236C94.003 13.3415 93.9215 13.169 93.84 13.0012C93.8209 12.9581 93.7969 12.9102 93.7729 12.8671C93.7106 12.7856 93.6483 12.7041 93.586 12.6227C93.5189 12.57 93.4519 12.5172 93.3848 12.4645C93.356 12.4406 93.3321 12.4166 93.3033 12.3926C93.1739 12.2824 93.0349 12.1866 92.8672 12.1387C92.6516 12.0811 92.4263 12.1051 92.2251 12.1866C92.0621 12.2537 91.9375 12.3495 91.8321 12.4885C91.7027 12.661 91.6452 12.8383 91.626 13.0492C91.5877 13.1306 91.5637 13.2121 91.5637 13.3032C91.5494 13.4134 91.5446 13.4805 91.5446 13.5811C91.5446 13.6722 91.5446 13.7632 91.5446 13.8543C91.5541 14.046 91.5541 14.2376 91.6069 14.4245C91.6308 14.5156 91.6548 14.6066 91.6739 14.6977C91.7123 14.7935 91.7554 14.8894 91.7938 14.9852C91.8704 15.1242 91.9711 15.2392 92.1053 15.3255C92.1819 15.4021 92.2682 15.4501 92.3736 15.4788C92.5174 15.5555 92.6707 15.589 92.8385 15.5842C93.0541 15.5747 93.2554 15.522 93.4471 15.4213C93.7106 15.2823 93.9215 14.9804 94.003 14.7025C94.0269 14.6114 94.0509 14.5204 94.07 14.4293C94.0892 14.3143 94.1228 14.161 94.1228 14.046C94.1228 13.9309 94.0892 13.792 94.07 13.677L94.0748 13.6722Z" fill="#43A674"/>
<path d="M121.606 24.814C121.572 24.7278 121.539 24.6223 121.496 24.5505C121.438 24.4546 121.405 24.4163 121.342 24.3588C121.251 24.2581 121.136 24.1863 121.012 24.1479C120.887 24.0856 120.758 24.0521 120.614 24.0569C120.523 24.0712 120.432 24.0808 120.341 24.0952C120.168 24.1431 120.015 24.2342 119.886 24.3588C119.818 24.4211 119.751 24.4882 119.684 24.5553C119.593 24.6415 119.507 24.7278 119.445 24.8428C119.426 24.8811 119.406 24.9195 119.387 24.9578C119.358 25.0297 119.325 25.1016 119.296 25.1734C119.287 25.2549 119.277 25.3316 119.263 25.4131C119.272 25.4945 119.282 25.5712 119.296 25.6527C119.325 25.7725 119.378 25.8731 119.459 25.9594C119.497 26.0265 119.555 26.0792 119.622 26.1223C119.679 26.1798 119.747 26.2182 119.823 26.2373C119.895 26.2804 119.972 26.2996 120.053 26.2996C120.173 26.3284 120.293 26.3188 120.413 26.2852C120.456 26.2804 120.499 26.2709 120.542 26.2661C120.59 26.2613 120.628 26.2421 120.671 26.2134C120.715 26.199 120.758 26.1798 120.801 26.1606C120.81 26.1559 120.82 26.1511 120.83 26.1463L120.892 26.1127C120.973 26.0696 121.06 26.0265 121.141 25.9833C121.213 25.9306 121.28 25.8779 121.352 25.8204C121.453 25.7293 121.524 25.6143 121.563 25.4897C121.611 25.4083 121.635 25.322 121.635 25.231C121.663 25.092 121.659 24.9578 121.616 24.8188L121.606 24.814Z" fill="#43A674"/>
<path d="M156.501 61.736C157.954 57.4218 156.072 52.8939 152.297 51.6228C148.522 50.3516 144.284 52.8186 142.831 57.1328C141.378 61.447 143.261 65.9749 147.036 67.246C150.811 68.5172 155.049 66.0503 156.501 61.736Z" fill="#FCB0B4"/>
<path d="M56.2164 46.9394C59.2606 44.3705 59.3484 39.4677 56.4125 35.9886C53.4766 32.5096 48.6289 31.7717 45.5847 34.3406C42.5405 36.9095 42.4527 41.8123 45.3886 45.2913C48.3245 48.7704 53.1722 49.5082 56.2164 46.9394Z" fill="#FCB0B4"/>
<g style="mix-blend-mode:soft-light">
<path d="M175.969 86.9162C174.258 86.0728 172.293 85.6655 170.429 85.4163C168.555 85.1671 166.653 85.1575 164.779 85.3875C161.007 85.8524 157.528 87.3907 154.538 89.8538C154.313 90.0407 154.6 90.4097 154.84 90.266C157.917 88.4018 161.444 87.2756 164.975 86.8683C166.72 86.667 168.488 86.6718 170.232 86.8923C172.039 87.1223 173.702 87.7021 175.427 88.258C176.17 88.4977 176.697 87.2708 175.969 86.9114V86.9162Z" fill="white"/>
<path d="M180.823 90.8315C180.814 90.7739 180.794 90.7117 180.78 90.6541C180.775 90.5966 180.771 90.5391 180.751 90.4864C180.737 90.4385 180.723 90.3906 180.708 90.3427C180.66 90.1941 180.603 90.0407 180.54 89.897C180.473 89.7532 180.358 89.6238 180.258 89.504C180.191 89.4226 180.119 89.3411 180.042 89.2644C179.97 89.1925 179.898 89.1206 179.822 89.0488C179.697 88.9385 179.572 88.8571 179.429 88.7852C179.338 88.7421 179.242 88.6941 179.151 88.6606C179.064 88.627 178.969 88.6222 178.878 88.6079C178.547 88.5647 178.25 88.8187 178.231 89.1686C178.216 89.4226 178.374 89.6574 178.533 89.8299C178.624 89.9305 178.7 90.0503 178.801 90.1414C179.002 90.3235 179.184 90.5248 179.347 90.7452C179.309 90.6925 179.271 90.6398 179.232 90.5871C179.304 90.6829 179.366 90.774 179.453 90.8506C179.496 90.889 179.534 90.9273 179.572 90.9656C179.649 91.0423 179.731 91.1334 179.817 91.2053C179.855 91.2532 179.894 91.3059 179.932 91.3538C180.08 91.5311 180.382 91.6126 180.579 91.4784C180.79 91.3346 180.862 91.0806 180.818 90.8315H180.823Z" fill="white"/>
<path d="M43.1193 83.2598C43.1193 83.2598 43.1193 83.2406 43.1193 83.2358C41.6193 81.755 40.0187 80.4084 38.2216 79.3493C35.0348 77.4756 31.225 76.6609 27.8273 77.8014C26.9647 78.089 26.1357 78.4819 25.4073 79.0426C24.6597 79.6177 24.1565 80.2694 23.706 81.132C23.6581 81.2183 23.7683 81.3141 23.8402 81.247C26.1453 79.0139 29.3129 77.8494 32.5093 78.5059C36.0747 79.2391 39.2376 81.5873 41.9116 84.2086C42.2662 84.5585 42.6113 84.9131 42.9563 85.2773C42.9851 84.616 43.0378 83.9498 43.124 83.2646L43.1193 83.2598Z" fill="white"/>
<path d="M154.821 34.6764C154.433 33.9288 154.025 33.1812 153.589 32.4528C151.792 29.4241 149.947 27.0041 147.537 24.469C146.909 23.8029 146.252 23.1607 145.567 22.5425C145.021 22.0441 144.259 21.402 143.851 21.1049C142.438 20.0745 140.938 19.0874 139.313 18.4212C136.136 17.1178 132.503 16.6481 128.996 16.7967C128.789 16.8063 128.583 16.8158 128.377 16.835C131.698 15.5315 135.388 15.2967 139.581 16.5619C147.12 18.8286 153.412 25.437 154.682 33.555C154.739 33.9288 154.787 34.3026 154.816 34.6764H154.821Z" fill="white"/>
<path d="M90.1452 4.38966C88.3673 3.79543 86.5654 3.31621 84.706 3.0095C84.4569 2.96637 84.2029 2.93283 83.9585 2.89449C83.9105 2.8897 83.8866 2.88491 83.8674 2.88491C83.8626 2.88011 83.8578 2.88011 83.853 2.88011C83.7859 2.87532 83.7188 2.86574 83.647 2.86095C83.1821 2.80823 82.7125 2.76031 82.2476 2.73156C81.3084 2.66447 80.3739 2.63092 79.4346 2.6405C78.4906 2.65009 77.5513 2.69801 76.6216 2.78906C76.3724 2.80823 76.1184 2.84178 75.8692 2.86574C75.7878 2.87532 75.7015 2.88491 75.62 2.89928C75.6056 2.90408 75.5865 2.90408 75.5673 2.90887C75.1073 2.97596 74.6376 3.05263 74.1776 3.13889C72.3949 3.47914 70.6313 3.94398 68.9205 4.55739C68.518 4.70594 68.125 4.8545 67.7273 5.01744C67.6698 5.03661 67.617 5.06536 67.5595 5.08453C67.526 5.09891 67.4781 5.12287 67.3918 5.15641C67.3391 5.17558 67.0372 5.30976 66.9461 5.34331C66.8982 5.36248 66.8503 5.38644 66.8503 5.38644C66.0692 5.74106 65.2976 6.11006 64.5452 6.51261C61.6172 8.08924 59.1492 9.96299 56.7627 12.2297C57.8409 10.0397 59.2834 8.02694 61.0326 6.34009C67.1282 0.488804 76.3436 -1.36099 83.853 0.982401C86.4312 1.7827 88.5015 2.94241 90.1404 4.38966H90.1452Z" fill="white"/>
<path d="M110.402 26.5153C109.999 26.1463 109.453 26.0217 108.935 25.8635C108.336 25.6766 107.728 25.5185 107.124 25.3556C105.993 25.0584 104.852 24.7853 103.707 24.5457C102.562 24.3013 101.407 24.0904 100.252 23.9035C99.1401 23.7262 97.9325 23.4866 96.8111 23.7262C96.605 23.7693 96.5571 24.0952 96.7488 24.191C97.7408 24.6607 98.8909 24.7613 99.9643 24.9386C101.119 25.1303 102.269 25.3508 103.415 25.6C104.56 25.8491 105.696 26.1271 106.827 26.4338C107.392 26.5871 107.953 26.7549 108.518 26.913C109.026 27.0568 109.578 27.2916 110.109 27.2293C110.435 27.191 110.699 26.7836 110.407 26.5153H110.402Z" fill="white"/>
<path d="M114.811 27.8475C114.772 27.7181 114.72 27.6606 114.638 27.5552C114.624 27.536 114.605 27.512 114.59 27.4929C114.49 27.3731 114.341 27.3156 114.197 27.2724C114.087 27.2389 113.977 27.2101 113.871 27.1766C113.742 27.1383 113.613 27.0951 113.478 27.076C113.402 27.0664 113.325 27.0664 113.248 27.0712C113.085 27.0807 112.942 27.1335 112.822 27.2533C112.75 27.3251 112.702 27.4066 112.673 27.5073C112.645 27.6079 112.645 27.7085 112.673 27.8092C112.697 27.9433 112.788 28.0488 112.889 28.135C112.946 28.183 113.009 28.2405 113.066 28.274C113.129 28.3076 113.196 28.3315 113.263 28.3555C113.359 28.3938 113.454 28.4322 113.55 28.4657C113.646 28.504 113.742 28.5424 113.838 28.5759C113.986 28.6334 114.14 28.6334 114.298 28.5951C114.379 28.5759 114.47 28.552 114.542 28.504C114.648 28.4274 114.729 28.3459 114.782 28.2261C114.83 28.1111 114.849 27.9721 114.811 27.8475Z" fill="white"/>
<path d="M160.011 53.4523C159.69 52.9922 159.277 52.5897 158.885 52.1919C158.429 51.7271 158.012 51.4539 157.629 51.1616C156.819 50.5434 155.933 50.16 154.979 49.8341C154.409 49.6377 152.765 49.0578 152.348 49.7862C152.233 49.8916 152.209 50.0642 152.295 50.1983C152.405 50.5769 152.866 50.7207 153.196 50.8549C153.589 51.0178 153.977 51.1616 154.351 51.3629C155.118 51.7798 155.655 52.2686 156.263 52.8964C156.34 52.973 156.412 53.0497 156.484 53.1312C156.503 53.1503 156.503 53.1503 156.508 53.1551C156.527 53.1791 156.541 53.2031 156.56 53.2318C156.642 53.3468 156.718 53.4618 156.805 53.5769C156.838 53.6248 156.877 53.6727 156.915 53.7206C156.891 53.6919 156.91 53.7158 156.963 53.7925C157.207 54.1615 157.37 54.5353 157.567 54.9283C157.663 55.1247 157.763 55.3116 157.854 55.5081C157.883 55.5752 157.912 55.6423 157.94 55.7046C157.917 55.6519 157.897 55.5992 157.873 55.5417C157.926 55.6279 157.95 55.7477 157.984 55.8436C158.223 56.4905 158.463 57.286 159.11 57.6071C159.757 57.933 160.461 57.77 160.864 57.1327C161.583 55.9921 160.658 54.4011 160.001 53.4475L160.011 53.4523Z" fill="white"/>
<path d="M161.305 60.4057C161.17 60.0559 161.07 59.7875 160.816 59.5096C160.485 59.1454 159.944 59.0112 159.479 59.1454C159.014 59.2796 158.65 59.6582 158.52 60.1374C158.511 60.1805 158.506 60.2236 158.501 60.262C158.492 60.3147 158.482 60.3626 158.468 60.4153C158.458 60.4489 158.448 60.4776 158.439 60.5112C158.429 60.5399 158.429 60.5735 158.42 60.6022C158.405 60.6933 158.377 60.7843 158.348 60.8706C158.228 61.1102 158.147 61.3642 158.156 61.6469C158.156 61.9345 158.228 62.198 158.367 62.4472C158.501 62.6868 158.688 62.8737 158.918 63.0175C159.158 63.1613 159.417 63.2331 159.69 63.2331C159.968 63.2331 160.226 63.1613 160.461 63.0175C160.682 62.8977 160.931 62.6485 161.041 62.4137C161.079 62.3322 161.113 62.246 161.147 62.1597C161.194 62.0495 161.242 61.9345 161.276 61.8194C161.343 61.5942 161.362 61.3402 161.386 61.1102C161.41 60.8754 161.381 60.631 161.295 60.4105L161.305 60.4057Z" fill="white"/>
<path d="M51.2947 28.8155C48.6303 29.1414 45.9275 29.5008 43.5218 30.766C42.5202 31.2931 41.6049 31.988 40.8669 32.8458C40.2727 33.5406 39.1657 34.9927 39.7791 35.9463C39.9276 36.1811 40.172 36.2626 40.4356 36.2147C40.8861 36.1332 41.2024 35.6971 41.4803 35.3665C41.787 35.0071 42.1177 34.6476 42.4627 34.3266C43.1432 33.694 43.9627 33.186 44.7917 32.7835C46.7901 31.8107 49.1047 31.5806 51.2899 31.3554C51.9704 31.2835 52.5599 30.8235 52.5599 30.0855C52.5599 29.4673 51.9752 28.7341 51.2899 28.8155H51.2947Z" fill="white"/>
<path d="M56.5471 28.8826C56.3554 28.758 56.1924 28.6526 55.9576 28.5903C55.7132 28.528 55.4832 28.5328 55.2436 28.5567C55.0231 28.5759 54.7739 28.5759 54.5679 28.6334C54.4193 28.6718 54.2803 28.7484 54.1414 28.8155C54.0072 28.8778 53.9113 28.9593 53.7867 29.0599C53.6717 29.1654 53.5951 29.29 53.5471 29.4337C53.4752 29.5727 53.4417 29.7213 53.4465 29.8794C53.4609 30.1957 53.5711 30.4688 53.7867 30.7037C53.8874 30.8091 54.0216 30.8906 54.1414 30.972C54.2708 31.0535 54.4097 31.1254 54.5535 31.1685C54.6685 31.2068 54.7931 31.226 54.9129 31.25C55.1381 31.3027 55.373 31.341 55.603 31.3506C55.948 31.365 56.2499 31.1973 56.5471 31.0535C56.7339 30.9433 56.8873 30.7899 56.9975 30.603C57.1125 30.4065 57.17 30.1957 57.17 29.9657C57.17 29.5056 56.9256 29.127 56.5471 28.8778V28.8826Z" fill="white"/>
<path d="M148.931 86.0584C148.922 85.0041 148.821 83.9403 148.557 82.9099C148.04 80.878 147.503 78.5634 146.166 76.8286C146.037 76.6609 145.792 76.7711 145.826 76.9628C146.003 78.0075 146.377 78.9851 146.684 80.0059C146.995 81.0458 147.235 82.0953 147.402 83.1639C147.561 84.1703 147.776 85.1719 147.963 86.1734C148.131 87.0744 148.03 88.1862 148.466 89.02C148.505 89.0967 148.639 89.0919 148.677 89.02C149.123 88.1862 148.936 86.9641 148.926 86.0536L148.931 86.0584Z" fill="white"/>
<path d="M124.951 101.058C123.183 106.42 121.798 111.898 120.135 117.299C118.482 122.656 116.651 127.933 114.705 133.19C114.159 134.661 113.593 136.123 113.042 137.589C112.477 139.084 111.859 140.579 111.399 142.108C111.346 142.281 111.614 142.386 111.701 142.233C112.395 140.972 112.942 139.621 113.522 138.308C114.054 137.1 114.533 135.869 115.017 134.642C116.052 132.02 117.044 129.38 117.935 126.706C119.723 121.348 121.52 116.019 123.039 110.571C123.911 107.446 124.63 104.322 125.128 101.111C125.147 101.001 124.989 100.957 124.951 101.063V101.058Z" fill="white"/>
<path d="M66.8263 130.808C66.8263 130.808 66.7544 130.659 66.764 130.645C66.764 130.707 66.764 130.712 66.764 130.655C66.764 130.559 66.74 130.468 66.6921 130.386C66.6394 130.29 66.5771 130.195 66.5244 130.099C66.4094 129.902 66.3039 129.691 66.1698 129.505C66.0164 129.289 65.8631 129.035 65.6378 128.891C65.403 128.738 65.1011 128.939 65.0963 129.203C65.0963 129.447 65.2113 129.696 65.2976 129.921C65.3934 130.161 65.518 130.391 65.6282 130.621C65.6762 130.722 65.7193 130.827 65.772 130.923C65.8008 130.976 65.8391 131.024 65.887 131.057C65.9062 131.072 65.911 131.076 65.9158 131.081C65.9445 131.12 65.9733 131.163 66.002 131.201C66.0691 131.297 66.1362 131.397 66.2081 131.493C66.2656 131.575 66.3183 131.661 66.4046 131.714C66.4813 131.762 66.5675 131.776 66.6538 131.781C66.7736 131.786 66.8886 131.709 66.9509 131.608C67.109 131.345 66.9317 131.052 66.8311 130.798L66.8263 130.808Z" fill="white"/>
<path d="M77.1919 149.536C76.7126 148.764 76.2382 147.988 75.7686 147.212C74.8533 145.693 73.9188 144.173 73.1472 142.578C72.3757 140.982 71.4604 139.448 70.6409 137.877C70.2192 137.071 69.7879 136.276 69.3662 135.471C68.9924 134.752 68.6713 133.837 68.0531 133.29C67.8854 133.142 67.5595 133.228 67.5787 133.487C67.6314 134.273 68.1202 135.016 68.4605 135.71C68.863 136.525 69.2655 137.34 69.6921 138.14C70.5355 139.736 71.3741 141.375 72.3469 142.894C73.3293 144.423 74.2255 146.004 75.1648 147.557C75.6152 148.3 76.0705 149.038 76.5257 149.771C76.981 150.499 77.4458 151.338 78.1215 151.889C78.2174 151.97 78.3755 151.899 78.342 151.76C78.1359 150.959 77.6232 150.226 77.1871 149.526L77.1919 149.536Z" fill="white"/>
</g>
</g>
<defs>
<clipPath id="clip0_169_270548">
<rect width="204.1" height="178.84" fill="white" transform="translate(0.900024)"/>
</clipPath>
</defs>
</svg>
