<svg width="261" height="143" viewBox="0 0 261 143" fill="none" xmlns="http://www.w3.org/2000/svg">
<path fill-rule="evenodd" clip-rule="evenodd" d="M256.249 33.3829C262.454 26.9765 262.29 16.7532 255.884 10.5486C249.477 4.34391 239.254 4.50748 233.049 10.9139C218.254 26.1898 196.783 48.3573 177.443 68.3202C169.852 61.5339 158.275 59.2268 147.683 66.4964L121.824 84.2423L133.23 65.1109C147.344 41.4354 117.263 16.334 96.4964 34.4574L88.7525 41.2157C85.1342 25.4046 65.2499 15.6673 50.0641 27.5598L6.19259 61.917C-0.829007 67.4159 -2.06344 77.5657 3.43539 84.5873C8.93423 91.6089 19.0841 92.8433 26.1056 87.3445L51.8694 67.168C54.1512 81.1257 69.0767 90.7775 82.8931 86.4744L75.2293 99.3299C61.9249 121.647 88.3194 146.407 109.741 131.705L129.922 117.856C129.805 118.052 129.679 118.269 129.557 118.493C129.458 118.672 129.217 119.117 128.957 119.698C128.831 119.98 128.591 120.535 128.353 121.255L128.345 121.281C128.198 121.725 127.575 123.607 127.539 126.092C127.521 127.361 127.616 130.2 129.157 133.376C131.003 137.184 134.518 140.536 139.343 141.884C143.406 143.019 146.754 142.264 148.262 141.818C149.928 141.327 151.153 140.67 151.784 140.305C153.053 139.571 153.931 138.826 154.237 138.563C154.646 138.21 154.959 137.905 155.14 137.724C156.554 136.311 223.259 67.4456 256.249 33.3829ZM157.56 134.565C157.538 134.6 157.525 134.62 157.522 134.624C157.519 134.628 157.531 134.61 157.56 134.565Z" fill="black"/>
<path fill-rule="evenodd" clip-rule="evenodd" d="M256.249 33.3829C262.454 26.9765 262.29 16.7532 255.884 10.5486C249.477 4.34391 239.254 4.50748 233.049 10.9139C218.254 26.1898 196.783 48.3573 177.443 68.3202C169.852 61.5339 158.275 59.2268 147.683 66.4964L121.824 84.2423L133.23 65.1109C147.344 41.4354 117.263 16.334 96.4964 34.4574L88.7525 41.2157C85.1342 25.4046 65.2499 15.6673 50.0641 27.5598L6.19259 61.917C-0.829007 67.4159 -2.06344 77.5657 3.43539 84.5873C8.93423 91.6089 19.0841 92.8433 26.1056 87.3445L51.8694 67.168C54.1512 81.1257 69.0767 90.7775 82.8931 86.4744L75.2293 99.3299C61.9249 121.647 88.3194 146.407 109.741 131.705L129.922 117.856C129.805 118.052 129.679 118.269 129.557 118.493C129.458 118.672 129.217 119.117 128.957 119.698C128.831 119.98 128.591 120.535 128.353 121.255L128.345 121.281C128.198 121.725 127.575 123.607 127.539 126.092C127.521 127.361 127.616 130.2 129.157 133.376C131.003 137.184 134.518 140.536 139.343 141.884C143.406 143.019 146.754 142.264 148.262 141.818C149.928 141.327 151.153 140.67 151.784 140.305C153.053 139.571 153.931 138.826 154.237 138.563C154.646 138.21 154.959 137.905 155.14 137.724C156.554 136.311 223.259 67.4456 256.249 33.3829ZM157.56 134.565C157.538 134.6 157.525 134.62 157.522 134.624C157.519 134.628 157.531 134.61 157.56 134.565Z" fill="url(#paint0_linear_169_270792)" fill-opacity="0.78"/>
<path fill-rule="evenodd" clip-rule="evenodd" d="M256.249 27.3829C262.454 20.9765 262.29 10.7532 255.884 4.54856C249.477 -1.65609 239.254 -1.49252 233.049 4.91391C218.254 20.1898 196.783 42.3573 177.443 62.3202C169.852 55.5339 158.275 53.2268 147.683 60.4964L121.824 78.2423L133.23 59.1109C147.344 35.4354 117.263 10.334 96.4964 28.4574L88.7525 35.2157C85.1342 19.4046 65.2499 9.66735 50.0641 21.5598L6.19259 55.917C-0.829007 61.4159 -2.06344 71.5657 3.43539 78.5873C8.93423 85.6089 19.0841 86.8433 26.1056 81.3445L51.8694 61.168C54.1512 75.1257 69.0767 84.7775 82.8931 80.4744L75.2293 93.3299C61.9249 115.647 88.3194 140.407 109.741 125.705L129.922 111.856C129.805 112.052 129.679 112.269 129.557 112.493C129.458 112.672 129.217 113.117 128.957 113.698C128.831 113.98 128.591 114.535 128.353 115.255L128.345 115.281C128.198 115.725 127.575 117.607 127.539 120.092C127.521 121.361 127.616 124.2 129.157 127.376C131.003 131.184 134.518 134.536 139.343 135.884C143.406 137.019 146.754 136.264 148.262 135.818C149.928 135.327 151.153 134.67 151.784 134.305C153.053 133.571 153.931 132.826 154.237 132.563C154.646 132.21 154.959 131.905 155.14 131.724C156.554 130.311 223.259 61.4456 256.249 27.3829ZM157.56 128.565C157.538 128.6 157.525 128.62 157.522 128.624C157.519 128.628 157.531 128.61 157.56 128.565Z" fill="black"/>
<path fill-rule="evenodd" clip-rule="evenodd" d="M256.249 27.3829C262.454 20.9765 262.29 10.7532 255.884 4.54856C249.477 -1.65609 239.254 -1.49252 233.049 4.91391C218.254 20.1898 196.783 42.3573 177.443 62.3202C169.852 55.5339 158.275 53.2268 147.683 60.4964L121.824 78.2423L133.23 59.1109C147.344 35.4354 117.263 10.334 96.4964 28.4574L88.7525 35.2157C85.1342 19.4046 65.2499 9.66735 50.0641 21.5598L6.19259 55.917C-0.829007 61.4159 -2.06344 71.5657 3.43539 78.5873C8.93423 85.6089 19.0841 86.8433 26.1056 81.3445L51.8694 61.168C54.1512 75.1257 69.0767 84.7775 82.8931 80.4744L75.2293 93.3299C61.9249 115.647 88.3194 140.407 109.741 125.705L129.922 111.856C129.805 112.052 129.679 112.269 129.557 112.493C129.458 112.672 129.217 113.117 128.957 113.698C128.831 113.98 128.591 114.535 128.353 115.255L128.345 115.281C128.198 115.725 127.575 117.607 127.539 120.092C127.521 121.361 127.616 124.2 129.157 127.376C131.003 131.184 134.518 134.536 139.343 135.884C143.406 137.019 146.754 136.264 148.262 135.818C149.928 135.327 151.153 134.67 151.784 134.305C153.053 133.571 153.931 132.826 154.237 132.563C154.646 132.21 154.959 131.905 155.14 131.724C156.554 130.311 223.259 61.4456 256.249 27.3829ZM157.56 128.565C157.538 128.6 157.525 128.62 157.522 128.624C157.519 128.628 157.531 128.61 157.56 128.565Z" fill="url(#paint1_linear_169_270792)"/>
<g filter="url(#filter0_d_169_270792)">
<mask id="path-3-outside-1_169_270792" maskUnits="userSpaceOnUse" x="21.1587" y="29.0548" width="185" height="105" fill="black">
<rect fill="white" x="21.1587" y="29.0548" width="185" height="105"/>
<path d="M32.8789 33.8721C30.9112 49.1212 28.0045 62.8274 24.1587 74.9909L35.6961 77.3386L39.3184 53.7272L42.0015 76.7349L51.7949 75.93L54.478 55.0687L58.771 77.1374L70.6438 74.7226C65.9483 59.563 62.7733 45.1859 61.1187 31.5914L50.4533 32.4635L47.4348 53.2576L44.0809 31.5914L32.8789 33.8721Z"/>
<path d="M83.2702 43.263C85.2825 43.0394 87.3843 42.7935 89.5755 42.5252C91.722 42.3463 94.0027 42.1674 96.4175 41.9885L95.6796 36.4881L94.9417 31.0548L70.8607 33.8721C70.9055 38.7017 70.9725 45.812 71.062 55.2029L71.1961 66.0025C71.2408 70.6532 71.2856 74.186 71.3303 76.6008C76.6071 75.4828 81.4367 74.5437 85.8191 73.7835C90.1568 73.1127 94.0697 72.6655 97.5578 72.442L96.887 66.9416L96.1491 61.4412L89.4413 62.3802L82.6665 63.3193L82.8006 57.7519C84.1422 57.5283 85.685 57.26 87.429 56.9469C88.4128 56.8128 90.5593 56.4774 93.8685 55.9408L93.2648 51.7148L92.7952 47.556L87.8315 48.4951L82.8006 49.233L83.0019 46.2815C83.0466 45.6555 83.136 44.6493 83.2702 43.263Z"/>
<path d="M106.072 33.8721C104.104 49.1212 101.198 62.8274 97.3517 74.9909L108.889 77.3386L112.511 53.7272L115.194 76.7349L124.988 75.93L127.671 55.0687L131.964 77.1374L143.837 74.7226C139.141 59.563 135.966 45.1859 134.312 31.5914L123.646 32.4635L120.628 53.2576L117.274 31.5914L106.072 33.8721Z"/>
<path d="M37.8426 106.888C37.9768 101.253 38.4463 94.5007 39.2513 86.6302L25.9698 88.5755L26.2381 131.572L38.4463 128.755C38.0886 125.267 37.8426 121.041 37.7085 116.077C40.3916 115.586 42.4039 115.205 43.7455 114.937L43.8126 131.572L56.1549 128.755C55.1264 117.218 55.3947 103.176 56.9599 86.6302L43.6113 88.5755L43.7455 105.882L37.8426 106.888Z"/>
<path fill-rule="evenodd" clip-rule="evenodd" d="M66.6398 88.1059C64.4933 101.7 61.3183 115.362 57.1147 129.091L69.6583 131.841L71.067 124.261L79.0492 123.389L80.6591 130.902L92.8673 128.084C87.9035 112.12 84.5049 98.0558 82.6714 85.8923L66.6398 88.1059ZM74.555 99.5092L77.3052 115.474L71.8719 115.541L74.555 99.5092Z"/>
<path d="M104.264 122.651C103.728 113.081 104.22 101.387 105.74 87.5693L93.3307 89.045L93.1295 131.64L136.663 128.956C136.082 121.488 135.836 114.199 135.925 107.089C136.015 99.934 136.328 92.7119 136.864 85.4228L125.059 87.5693L125.998 121.041L120.497 121.578C119.692 111.606 119.983 99.8893 121.369 86.429L108.826 87.9718C108.87 91.4598 108.96 97.1614 109.094 105.077L109.295 122.249L104.264 122.651Z"/>
<path d="M151.603 86.6302L139.193 88.5755L139.462 130.7L150.53 127.95C150.127 121.824 149.993 115.518 150.127 109.034L160.256 131.505L172.464 125.804L158.914 101.454L171.324 91.1244L160.792 86.2277C157.841 89.0897 154.554 91.9964 150.932 94.9479C150.977 92.8908 151.2 90.1182 151.603 86.6302Z"/>
<path d="M182.914 99.2409C183.316 95.0373 183.942 90.8561 184.792 86.6973L171.175 88.7096C171.712 95.7304 172.003 102.662 172.047 109.504C172.092 116.346 172.383 123.411 172.919 130.7C174.395 130.209 176.206 129.694 178.353 129.158C181.975 128.353 184.188 127.883 184.993 127.749C185.351 124.798 186.29 121.511 187.811 117.889C189.242 114.311 190.673 111.158 192.104 108.431C192.417 115.407 192.797 122.651 193.244 130.164L203.641 127.749C203.373 122.159 203.149 115.809 202.97 108.699C202.836 101.589 203.104 94.2324 203.775 86.6302L191.701 88.3071C191.12 89.6487 189.778 92.7567 187.676 97.631C185.485 102.684 183.853 107.491 182.78 112.053C182.511 107.626 182.556 103.355 182.914 99.2409Z"/>
</mask>
<path d="M32.8789 33.8721C30.9112 49.1212 28.0045 62.8274 24.1587 74.9909L35.6961 77.3386L39.3184 53.7272L42.0015 76.7349L51.7949 75.93L54.478 55.0687L58.771 77.1374L70.6438 74.7226C65.9483 59.563 62.7733 45.1859 61.1187 31.5914L50.4533 32.4635L47.4348 53.2576L44.0809 31.5914L32.8789 33.8721Z" fill="#B5B5B5"/>
<path d="M83.2702 43.263C85.2825 43.0394 87.3843 42.7935 89.5755 42.5252C91.722 42.3463 94.0027 42.1674 96.4175 41.9885L95.6796 36.4881L94.9417 31.0548L70.8607 33.8721C70.9055 38.7017 70.9725 45.812 71.062 55.2029L71.1961 66.0025C71.2408 70.6532 71.2856 74.186 71.3303 76.6008C76.6071 75.4828 81.4367 74.5437 85.8191 73.7835C90.1568 73.1127 94.0697 72.6655 97.5578 72.442L96.887 66.9416L96.1491 61.4412L89.4413 62.3802L82.6665 63.3193L82.8006 57.7519C84.1422 57.5283 85.685 57.26 87.429 56.9469C88.4128 56.8128 90.5593 56.4774 93.8685 55.9408L93.2648 51.7148L92.7952 47.556L87.8315 48.4951L82.8006 49.233L83.0019 46.2815C83.0466 45.6555 83.136 44.6493 83.2702 43.263Z" fill="#B5B5B5"/>
<path d="M106.072 33.8721C104.104 49.1212 101.198 62.8274 97.3517 74.9909L108.889 77.3386L112.511 53.7272L115.194 76.7349L124.988 75.93L127.671 55.0687L131.964 77.1374L143.837 74.7226C139.141 59.563 135.966 45.1859 134.312 31.5914L123.646 32.4635L120.628 53.2576L117.274 31.5914L106.072 33.8721Z" fill="#B5B5B5"/>
<path d="M37.8426 106.888C37.9768 101.253 38.4463 94.5007 39.2513 86.6302L25.9698 88.5755L26.2381 131.572L38.4463 128.755C38.0886 125.267 37.8426 121.041 37.7085 116.077C40.3916 115.586 42.4039 115.205 43.7455 114.937L43.8126 131.572L56.1549 128.755C55.1264 117.218 55.3947 103.176 56.9599 86.6302L43.6113 88.5755L43.7455 105.882L37.8426 106.888Z" fill="#B5B5B5"/>
<path fill-rule="evenodd" clip-rule="evenodd" d="M66.6398 88.1059C64.4933 101.7 61.3183 115.362 57.1147 129.091L69.6583 131.841L71.067 124.261L79.0492 123.389L80.6591 130.902L92.8673 128.084C87.9035 112.12 84.5049 98.0558 82.6714 85.8923L66.6398 88.1059ZM74.555 99.5092L77.3052 115.474L71.8719 115.541L74.555 99.5092Z" fill="#B5B5B5"/>
<path d="M104.264 122.651C103.728 113.081 104.22 101.387 105.74 87.5693L93.3307 89.045L93.1295 131.64L136.663 128.956C136.082 121.488 135.836 114.199 135.925 107.089C136.015 99.934 136.328 92.7119 136.864 85.4228L125.059 87.5693L125.998 121.041L120.497 121.578C119.692 111.606 119.983 99.8893 121.369 86.429L108.826 87.9718C108.87 91.4598 108.96 97.1614 109.094 105.077L109.295 122.249L104.264 122.651Z" fill="#B5B5B5"/>
<path d="M151.603 86.6302L139.193 88.5755L139.462 130.7L150.53 127.95C150.127 121.824 149.993 115.518 150.127 109.034L160.256 131.505L172.464 125.804L158.914 101.454L171.324 91.1244L160.792 86.2277C157.841 89.0897 154.554 91.9964 150.932 94.9479C150.977 92.8908 151.2 90.1182 151.603 86.6302Z" fill="#B5B5B5"/>
<path d="M182.914 99.2409C183.316 95.0373 183.942 90.8561 184.792 86.6973L171.175 88.7096C171.712 95.7304 172.003 102.662 172.047 109.504C172.092 116.346 172.383 123.411 172.919 130.7C174.395 130.209 176.206 129.694 178.353 129.158C181.975 128.353 184.188 127.883 184.993 127.749C185.351 124.798 186.29 121.511 187.811 117.889C189.242 114.311 190.673 111.158 192.104 108.431C192.417 115.407 192.797 122.651 193.244 130.164L203.641 127.749C203.373 122.159 203.149 115.809 202.97 108.699C202.836 101.589 203.104 94.2324 203.775 86.6302L191.701 88.3071C191.12 89.6487 189.778 92.7567 187.676 97.631C185.485 102.684 183.853 107.491 182.78 112.053C182.511 107.626 182.556 103.355 182.914 99.2409Z" fill="#B5B5B5"/>
<path d="M32.8789 33.8721C30.9112 49.1212 28.0045 62.8274 24.1587 74.9909L35.6961 77.3386L39.3184 53.7272L42.0015 76.7349L51.7949 75.93L54.478 55.0687L58.771 77.1374L70.6438 74.7226C65.9483 59.563 62.7733 45.1859 61.1187 31.5914L50.4533 32.4635L47.4348 53.2576L44.0809 31.5914L32.8789 33.8721Z" stroke="#8020CC" stroke-width="3.22968" mask="url(#path-3-outside-1_169_270792)"/>
<path d="M83.2702 43.263C85.2825 43.0394 87.3843 42.7935 89.5755 42.5252C91.722 42.3463 94.0027 42.1674 96.4175 41.9885L95.6796 36.4881L94.9417 31.0548L70.8607 33.8721C70.9055 38.7017 70.9725 45.812 71.062 55.2029L71.1961 66.0025C71.2408 70.6532 71.2856 74.186 71.3303 76.6008C76.6071 75.4828 81.4367 74.5437 85.8191 73.7835C90.1568 73.1127 94.0697 72.6655 97.5578 72.442L96.887 66.9416L96.1491 61.4412L89.4413 62.3802L82.6665 63.3193L82.8006 57.7519C84.1422 57.5283 85.685 57.26 87.429 56.9469C88.4128 56.8128 90.5593 56.4774 93.8685 55.9408L93.2648 51.7148L92.7952 47.556L87.8315 48.4951L82.8006 49.233L83.0019 46.2815C83.0466 45.6555 83.136 44.6493 83.2702 43.263Z" stroke="#8020CC" stroke-width="3.22968" mask="url(#path-3-outside-1_169_270792)"/>
<path d="M106.072 33.8721C104.104 49.1212 101.198 62.8274 97.3517 74.9909L108.889 77.3386L112.511 53.7272L115.194 76.7349L124.988 75.93L127.671 55.0687L131.964 77.1374L143.837 74.7226C139.141 59.563 135.966 45.1859 134.312 31.5914L123.646 32.4635L120.628 53.2576L117.274 31.5914L106.072 33.8721Z" stroke="#8020CC" stroke-width="3.22968" mask="url(#path-3-outside-1_169_270792)"/>
<path d="M37.8426 106.888C37.9768 101.253 38.4463 94.5007 39.2513 86.6302L25.9698 88.5755L26.2381 131.572L38.4463 128.755C38.0886 125.267 37.8426 121.041 37.7085 116.077C40.3916 115.586 42.4039 115.205 43.7455 114.937L43.8126 131.572L56.1549 128.755C55.1264 117.218 55.3947 103.176 56.9599 86.6302L43.6113 88.5755L43.7455 105.882L37.8426 106.888Z" stroke="#8020CC" stroke-width="3.22968" mask="url(#path-3-outside-1_169_270792)"/>
<path fill-rule="evenodd" clip-rule="evenodd" d="M66.6398 88.1059C64.4933 101.7 61.3183 115.362 57.1147 129.091L69.6583 131.841L71.067 124.261L79.0492 123.389L80.6591 130.902L92.8673 128.084C87.9035 112.12 84.5049 98.0558 82.6714 85.8923L66.6398 88.1059ZM74.555 99.5092L77.3052 115.474L71.8719 115.541L74.555 99.5092Z" stroke="#8020CC" stroke-width="3.22968" mask="url(#path-3-outside-1_169_270792)"/>
<path d="M104.264 122.651C103.728 113.081 104.22 101.387 105.74 87.5693L93.3307 89.045L93.1295 131.64L136.663 128.956C136.082 121.488 135.836 114.199 135.925 107.089C136.015 99.934 136.328 92.7119 136.864 85.4228L125.059 87.5693L125.998 121.041L120.497 121.578C119.692 111.606 119.983 99.8893 121.369 86.429L108.826 87.9718C108.87 91.4598 108.96 97.1614 109.094 105.077L109.295 122.249L104.264 122.651Z" stroke="#8020CC" stroke-width="3.22968" mask="url(#path-3-outside-1_169_270792)"/>
<path d="M151.603 86.6302L139.193 88.5755L139.462 130.7L150.53 127.95C150.127 121.824 149.993 115.518 150.127 109.034L160.256 131.505L172.464 125.804L158.914 101.454L171.324 91.1244L160.792 86.2277C157.841 89.0897 154.554 91.9964 150.932 94.9479C150.977 92.8908 151.2 90.1182 151.603 86.6302Z" stroke="#8020CC" stroke-width="3.22968" mask="url(#path-3-outside-1_169_270792)"/>
<path d="M182.914 99.2409C183.316 95.0373 183.942 90.8561 184.792 86.6973L171.175 88.7096C171.712 95.7304 172.003 102.662 172.047 109.504C172.092 116.346 172.383 123.411 172.919 130.7C174.395 130.209 176.206 129.694 178.353 129.158C181.975 128.353 184.188 127.883 184.993 127.749C185.351 124.798 186.29 121.511 187.811 117.889C189.242 114.311 190.673 111.158 192.104 108.431C192.417 115.407 192.797 122.651 193.244 130.164L203.641 127.749C203.373 122.159 203.149 115.809 202.97 108.699C202.836 101.589 203.104 94.2324 203.775 86.6302L191.701 88.3071C191.12 89.6487 189.778 92.7567 187.676 97.631C185.485 102.684 183.853 107.491 182.78 112.053C182.511 107.626 182.556 103.355 182.914 99.2409Z" stroke="#8020CC" stroke-width="3.22968" mask="url(#path-3-outside-1_169_270792)"/>
<mask id="path-4-outside-2_169_270792" maskUnits="userSpaceOnUse" x="21.1587" y="24" width="185" height="105" fill="black">
<rect fill="white" x="21.1587" y="24" width="185" height="105"/>
<path d="M32.8789 28.8173C30.9112 44.0663 28.0045 57.7726 24.1587 69.9361L35.6961 72.2838L39.3184 48.6724L42.0015 71.6801L51.7949 70.8752L54.478 50.0139L58.771 72.0826L70.6438 69.6678C65.9483 54.5082 62.7733 40.1311 61.1187 26.5366L50.4533 27.4086L47.4348 48.2028L44.0809 26.5366L32.8789 28.8173Z"/>
<path d="M83.2702 38.2082C85.2825 37.9846 87.3843 37.7387 89.5755 37.4703C91.722 37.2915 94.0027 37.1126 96.4175 36.9337L95.6796 31.4333L94.9417 26L70.8607 28.8173C70.9055 33.6469 70.9725 40.7572 71.062 50.1481L71.1961 60.9476C71.2408 65.5984 71.2856 69.1312 71.3303 71.546C76.6071 70.428 81.4367 69.4889 85.8191 68.7287C90.1568 68.0579 94.0697 67.6107 97.5578 67.3871L96.887 61.8867L96.1491 56.3863L89.4413 57.3254L82.6665 58.2645L82.8006 52.6971C84.1422 52.4735 85.685 52.2051 87.429 51.8921C88.4128 51.758 90.5593 51.4226 93.8685 50.8859L93.2648 46.66L92.7952 42.5012L87.8315 43.4403L82.8006 44.1781L83.0019 41.2267C83.0466 40.6006 83.136 39.5945 83.2702 38.2082Z"/>
<path d="M106.072 28.8173C104.104 44.0663 101.198 57.7726 97.3517 69.9361L108.889 72.2838L112.511 48.6724L115.194 71.6801L124.988 70.8752L127.671 50.0139L131.964 72.0826L143.837 69.6678C139.141 54.5082 135.966 40.1311 134.312 26.5366L123.646 27.4086L120.628 48.2028L117.274 26.5366L106.072 28.8173Z"/>
<path d="M37.8426 101.833C37.9768 96.1984 38.4463 89.4459 39.2513 81.5754L25.9698 83.5206L26.2381 126.518L38.4463 123.7C38.0886 120.212 37.8426 115.986 37.7085 111.023C40.3916 110.531 42.4039 110.151 43.7455 109.882L43.8126 126.518L56.1549 123.7C55.1264 112.163 55.3947 98.1213 56.9599 81.5754L43.6113 83.5206L43.7455 100.827L37.8426 101.833Z"/>
<path fill-rule="evenodd" clip-rule="evenodd" d="M66.6398 83.0511C64.4933 96.6456 61.3183 110.307 57.1147 124.036L69.6583 126.786L71.067 119.206L79.0492 118.334L80.6591 125.847L92.8673 123.03C87.9035 107.065 84.5049 93.001 82.6714 80.8375L66.6398 83.0511ZM74.555 94.4544L77.3052 110.419L71.8719 110.486L74.555 94.4544Z"/>
<path d="M104.264 117.596C103.728 108.026 104.22 96.3325 105.74 82.5145L93.3307 83.9902L93.1295 126.585L136.663 123.902C136.082 116.434 135.836 109.144 135.925 102.034C136.015 94.8792 136.328 87.6571 136.864 80.368L125.059 82.5145L125.998 115.986L120.497 116.523C119.692 106.551 119.983 94.8345 121.369 81.3741L108.826 82.9169C108.87 86.405 108.96 92.1066 109.094 100.022L109.295 117.194L104.264 117.596Z"/>
<path d="M151.603 81.5754L139.193 83.5206L139.462 125.646L150.53 122.895C150.127 116.769 149.993 110.464 150.127 103.979L160.256 126.451L172.464 120.749L158.914 96.3996L171.324 86.0696L160.792 81.1729C157.841 84.0349 154.554 86.9416 150.932 89.893C150.977 87.836 151.2 85.0634 151.603 81.5754Z"/>
<path d="M182.914 94.186C183.316 89.9825 183.942 85.8013 184.792 81.6425L171.175 83.6548C171.712 90.6756 172.003 97.607 172.047 104.449C172.092 111.291 172.383 118.356 172.919 125.646C174.395 125.154 176.206 124.639 178.353 124.103C181.975 123.298 184.188 122.828 184.993 122.694C185.351 119.743 186.29 116.456 187.811 112.834C189.242 109.256 190.673 106.104 192.104 103.376C192.417 110.352 192.797 117.596 193.244 125.109L203.641 122.694C203.373 117.104 203.149 110.754 202.97 103.644C202.836 96.5338 203.104 89.1775 203.775 81.5754L191.701 83.2523C191.12 84.5939 189.778 87.7018 187.676 92.5762C185.485 97.6294 183.853 102.437 182.78 106.998C182.511 102.571 182.556 98.3002 182.914 94.186Z"/>
</mask>
<path d="M32.8789 28.8173C30.9112 44.0663 28.0045 57.7726 24.1587 69.9361L35.6961 72.2838L39.3184 48.6724L42.0015 71.6801L51.7949 70.8752L54.478 50.0139L58.771 72.0826L70.6438 69.6678C65.9483 54.5082 62.7733 40.1311 61.1187 26.5366L50.4533 27.4086L47.4348 48.2028L44.0809 26.5366L32.8789 28.8173Z" fill="white"/>
<path d="M83.2702 38.2082C85.2825 37.9846 87.3843 37.7387 89.5755 37.4703C91.722 37.2915 94.0027 37.1126 96.4175 36.9337L95.6796 31.4333L94.9417 26L70.8607 28.8173C70.9055 33.6469 70.9725 40.7572 71.062 50.1481L71.1961 60.9476C71.2408 65.5984 71.2856 69.1312 71.3303 71.546C76.6071 70.428 81.4367 69.4889 85.8191 68.7287C90.1568 68.0579 94.0697 67.6107 97.5578 67.3871L96.887 61.8867L96.1491 56.3863L89.4413 57.3254L82.6665 58.2645L82.8006 52.6971C84.1422 52.4735 85.685 52.2051 87.429 51.8921C88.4128 51.758 90.5593 51.4226 93.8685 50.8859L93.2648 46.66L92.7952 42.5012L87.8315 43.4403L82.8006 44.1781L83.0019 41.2267C83.0466 40.6006 83.136 39.5945 83.2702 38.2082Z" fill="white"/>
<path d="M106.072 28.8173C104.104 44.0663 101.198 57.7726 97.3517 69.9361L108.889 72.2838L112.511 48.6724L115.194 71.6801L124.988 70.8752L127.671 50.0139L131.964 72.0826L143.837 69.6678C139.141 54.5082 135.966 40.1311 134.312 26.5366L123.646 27.4086L120.628 48.2028L117.274 26.5366L106.072 28.8173Z" fill="white"/>
<path d="M37.8426 101.833C37.9768 96.1984 38.4463 89.4459 39.2513 81.5754L25.9698 83.5206L26.2381 126.518L38.4463 123.7C38.0886 120.212 37.8426 115.986 37.7085 111.023C40.3916 110.531 42.4039 110.151 43.7455 109.882L43.8126 126.518L56.1549 123.7C55.1264 112.163 55.3947 98.1213 56.9599 81.5754L43.6113 83.5206L43.7455 100.827L37.8426 101.833Z" fill="white"/>
<path fill-rule="evenodd" clip-rule="evenodd" d="M66.6398 83.0511C64.4933 96.6456 61.3183 110.307 57.1147 124.036L69.6583 126.786L71.067 119.206L79.0492 118.334L80.6591 125.847L92.8673 123.03C87.9035 107.065 84.5049 93.001 82.6714 80.8375L66.6398 83.0511ZM74.555 94.4544L77.3052 110.419L71.8719 110.486L74.555 94.4544Z" fill="white"/>
<path d="M104.264 117.596C103.728 108.026 104.22 96.3325 105.74 82.5145L93.3307 83.9902L93.1295 126.585L136.663 123.902C136.082 116.434 135.836 109.144 135.925 102.034C136.015 94.8792 136.328 87.6571 136.864 80.368L125.059 82.5145L125.998 115.986L120.497 116.523C119.692 106.551 119.983 94.8345 121.369 81.3741L108.826 82.9169C108.87 86.405 108.96 92.1066 109.094 100.022L109.295 117.194L104.264 117.596Z" fill="white"/>
<path d="M151.603 81.5754L139.193 83.5206L139.462 125.646L150.53 122.895C150.127 116.769 149.993 110.464 150.127 103.979L160.256 126.451L172.464 120.749L158.914 96.3996L171.324 86.0696L160.792 81.1729C157.841 84.0349 154.554 86.9416 150.932 89.893C150.977 87.836 151.2 85.0634 151.603 81.5754Z" fill="white"/>
<path d="M182.914 94.186C183.316 89.9825 183.942 85.8013 184.792 81.6425L171.175 83.6548C171.712 90.6756 172.003 97.607 172.047 104.449C172.092 111.291 172.383 118.356 172.919 125.646C174.395 125.154 176.206 124.639 178.353 124.103C181.975 123.298 184.188 122.828 184.993 122.694C185.351 119.743 186.29 116.456 187.811 112.834C189.242 109.256 190.673 106.104 192.104 103.376C192.417 110.352 192.797 117.596 193.244 125.109L203.641 122.694C203.373 117.104 203.149 110.754 202.97 103.644C202.836 96.5338 203.104 89.1775 203.775 81.5754L191.701 83.2523C191.12 84.5939 189.778 87.7018 187.676 92.5762C185.485 97.6294 183.853 102.437 182.78 106.998C182.511 102.571 182.556 98.3002 182.914 94.186Z" fill="white"/>
<path d="M32.8789 28.8173C30.9112 44.0663 28.0045 57.7726 24.1587 69.9361L35.6961 72.2838L39.3184 48.6724L42.0015 71.6801L51.7949 70.8752L54.478 50.0139L58.771 72.0826L70.6438 69.6678C65.9483 54.5082 62.7733 40.1311 61.1187 26.5366L50.4533 27.4086L47.4348 48.2028L44.0809 26.5366L32.8789 28.8173Z" stroke="#8020CC" stroke-width="3.22968" mask="url(#path-4-outside-2_169_270792)"/>
<path d="M83.2702 38.2082C85.2825 37.9846 87.3843 37.7387 89.5755 37.4703C91.722 37.2915 94.0027 37.1126 96.4175 36.9337L95.6796 31.4333L94.9417 26L70.8607 28.8173C70.9055 33.6469 70.9725 40.7572 71.062 50.1481L71.1961 60.9476C71.2408 65.5984 71.2856 69.1312 71.3303 71.546C76.6071 70.428 81.4367 69.4889 85.8191 68.7287C90.1568 68.0579 94.0697 67.6107 97.5578 67.3871L96.887 61.8867L96.1491 56.3863L89.4413 57.3254L82.6665 58.2645L82.8006 52.6971C84.1422 52.4735 85.685 52.2051 87.429 51.8921C88.4128 51.758 90.5593 51.4226 93.8685 50.8859L93.2648 46.66L92.7952 42.5012L87.8315 43.4403L82.8006 44.1781L83.0019 41.2267C83.0466 40.6006 83.136 39.5945 83.2702 38.2082Z" stroke="#8020CC" stroke-width="3.22968" mask="url(#path-4-outside-2_169_270792)"/>
<path d="M106.072 28.8173C104.104 44.0663 101.198 57.7726 97.3517 69.9361L108.889 72.2838L112.511 48.6724L115.194 71.6801L124.988 70.8752L127.671 50.0139L131.964 72.0826L143.837 69.6678C139.141 54.5082 135.966 40.1311 134.312 26.5366L123.646 27.4086L120.628 48.2028L117.274 26.5366L106.072 28.8173Z" stroke="#8020CC" stroke-width="3.22968" mask="url(#path-4-outside-2_169_270792)"/>
<path d="M37.8426 101.833C37.9768 96.1984 38.4463 89.4459 39.2513 81.5754L25.9698 83.5206L26.2381 126.518L38.4463 123.7C38.0886 120.212 37.8426 115.986 37.7085 111.023C40.3916 110.531 42.4039 110.151 43.7455 109.882L43.8126 126.518L56.1549 123.7C55.1264 112.163 55.3947 98.1213 56.9599 81.5754L43.6113 83.5206L43.7455 100.827L37.8426 101.833Z" stroke="#8020CC" stroke-width="3.22968" mask="url(#path-4-outside-2_169_270792)"/>
<path fill-rule="evenodd" clip-rule="evenodd" d="M66.6398 83.0511C64.4933 96.6456 61.3183 110.307 57.1147 124.036L69.6583 126.786L71.067 119.206L79.0492 118.334L80.6591 125.847L92.8673 123.03C87.9035 107.065 84.5049 93.001 82.6714 80.8375L66.6398 83.0511ZM74.555 94.4544L77.3052 110.419L71.8719 110.486L74.555 94.4544Z" stroke="#8020CC" stroke-width="3.22968" mask="url(#path-4-outside-2_169_270792)"/>
<path d="M104.264 117.596C103.728 108.026 104.22 96.3325 105.74 82.5145L93.3307 83.9902L93.1295 126.585L136.663 123.902C136.082 116.434 135.836 109.144 135.925 102.034C136.015 94.8792 136.328 87.6571 136.864 80.368L125.059 82.5145L125.998 115.986L120.497 116.523C119.692 106.551 119.983 94.8345 121.369 81.3741L108.826 82.9169C108.87 86.405 108.96 92.1066 109.094 100.022L109.295 117.194L104.264 117.596Z" stroke="#8020CC" stroke-width="3.22968" mask="url(#path-4-outside-2_169_270792)"/>
<path d="M151.603 81.5754L139.193 83.5206L139.462 125.646L150.53 122.895C150.127 116.769 149.993 110.464 150.127 103.979L160.256 126.451L172.464 120.749L158.914 96.3996L171.324 86.0696L160.792 81.1729C157.841 84.0349 154.554 86.9416 150.932 89.893C150.977 87.836 151.2 85.0634 151.603 81.5754Z" stroke="#8020CC" stroke-width="3.22968" mask="url(#path-4-outside-2_169_270792)"/>
<path d="M182.914 94.186C183.316 89.9825 183.942 85.8013 184.792 81.6425L171.175 83.6548C171.712 90.6756 172.003 97.607 172.047 104.449C172.092 111.291 172.383 118.356 172.919 125.646C174.395 125.154 176.206 124.639 178.353 124.103C181.975 123.298 184.188 122.828 184.993 122.694C185.351 119.743 186.29 116.456 187.811 112.834C189.242 109.256 190.673 106.104 192.104 103.376C192.417 110.352 192.797 117.596 193.244 125.109L203.641 122.694C203.373 117.104 203.149 110.754 202.97 103.644C202.836 96.5338 203.104 89.1775 203.775 81.5754L191.701 83.2523C191.12 84.5939 189.778 87.7018 187.676 92.5762C185.485 97.6294 183.853 102.437 182.78 106.998C182.511 102.571 182.556 98.3002 182.914 94.186Z" stroke="#8020CC" stroke-width="3.22968" mask="url(#path-4-outside-2_169_270792)"/>
</g>
<defs>
<filter id="filter0_d_169_270792" x="18.0779" y="24.2119" width="191.484" height="117.563" filterUnits="userSpaceOnUse" color-interpolation-filters="sRGB">
<feFlood flood-opacity="0" result="BackgroundImageFix"/>
<feColorMatrix in="SourceAlpha" type="matrix" values="0 0 0 0 0 0 0 0 0 0 0 0 0 0 0 0 0 0 127 0" result="hardAlpha"/>
<feOffset dy="4"/>
<feGaussianBlur stdDeviation="2"/>
<feComposite in2="hardAlpha" operator="out"/>
<feColorMatrix type="matrix" values="0 0 0 0 0 0 0 0 0 0 0 0 0 0 0 0 0 0 0.25 0"/>
<feBlend mode="normal" in2="BackgroundImageFix" result="effect1_dropShadow_169_270792"/>
<feBlend mode="normal" in="SourceGraphic" in2="effect1_dropShadow_169_270792" result="shape"/>
</filter>
<linearGradient id="paint0_linear_169_270792" x1="-1.68619" y1="10.6527" x2="268.318" y2="28.4631" gradientUnits="userSpaceOnUse">
<stop stop-color="#4630BA"/>
<stop offset="1" stop-color="#A415D7"/>
</linearGradient>
<linearGradient id="paint1_linear_169_270792" x1="-1.68619" y1="4.65272" x2="268.318" y2="22.4631" gradientUnits="userSpaceOnUse">
<stop stop-color="#4630BA"/>
<stop offset="1" stop-color="#A415D7"/>
</linearGradient>
</defs>
</svg>
