<svg width="19" height="18" viewBox="0 0 19 18" fill="none" xmlns="http://www.w3.org/2000/svg">
<g clip-path="url(#clip0_349_19)">
<path d="M15.8338 15.6017H15.1998V16.201H15.8338V15.6017Z" fill="#F2A317"/>
<path d="M16.4668 13.801H15.8338V14.4012H16.4668V13.801Z" fill="#F2A317"/>
<path d="M3.80016 7.80126H3.16623V8.39977H3.80016V7.80126Z" fill="#FAF1CE"/>
<path d="M18.3678 5.99971H17.7338H17.0999H16.4668V6.59994V7.19931V7.80126V8.39977V9V9.60109V10.1996V10.7998V11.4009V11.9994V12.5997H15.8337V13.1999V13.801H16.4668V14.4003H15.8337V13.801H15.1998V14.4003H14.5676V14.9997H13.9337V15.6017V16.201H13.3006H12.6675V16.8004H12.0336V17.4015H11.4005H10.7666V18H11.4005H12.0336H12.6675H13.3006V17.4015H13.9337H14.5676V16.8004H15.1998V16.201V15.6017H15.8337V16.201H16.4668V15.6017V14.9997H17.0999V14.4003H17.7338V13.801V13.1999H18.3678V12.5997V11.9994H19V11.4009V10.7998V10.1996V9.60109V9V8.39977V7.80126V7.19931V6.59994V5.99971H18.3678Z" fill="#F2A317"/>
<path d="M12.0336 17.386V17.4015H10.7666V18H13.3006V17.4015H14.5676V17.386H12.0336Z" fill="#1D1D1B"/>
<path d="M15.8338 4.20074H15.1998V4.80011H15.8338V4.20074Z" fill="white"/>
<path d="M15.1998 5.99971V4.20074H14.5668V3.60138H13.9337V3.00029H13.2998V2.40092H12.6667V1.80069H12.0336V1.1996H10.7666V0.599369H5.69941V1.1996H4.43326V1.80069H3.79933V2.40092H3.1654V3.00029H2.53232V3.60138H1.89925V4.80097H1.26532V6.00057H0.633087V12.0003H1.26617V13.1999H1.90009V14.4012H2.53317V15.0006H3.16625V15.6025H3.80018V16.2019H4.4341V16.8013H5.70026V17.4023H10.7674V16.8013H12.0344V16.2019H12.6675V15.6025H13.3006V15.0006H13.9345V14.4012H14.5676V13.801H15.2007V12.6005H15.8346V5.99971H15.2007H15.1998ZM3.16625 6.59908V5.39948H3.80018V4.80011H4.4341V4.20074H5.06718V3.60138H5.70026V3.00029H10.7674V3.60138H11.4005V4.20074H12.0336V4.80011H12.6667V5.39948H13.2998V6.59908H13.9337V11.4001H13.2998V12.5997H12.6667V13.199H12.0336V13.8001H11.4005V14.4003H10.7674V14.9997H5.70026V14.4003H5.06718V13.8001H4.4341V13.199H3.80018V12.5997H3.16625V11.4001H2.53317V6.59908H3.16625Z" fill="#FDCD00"/>
<path d="M4.43325 5.99971H3.80017V6.59994V7.19931V7.80126V8.39977V9V9.60109V10.1996V10.7998H4.43325V11.4009V11.9994H5.06718V12.5997H5.70026V13.1999H6.33333H6.96641V13.801H7.60034H8.23342H8.8665H9.50042H10.1344V13.1999H10.7666H11.4005V12.5997H12.0336V11.9994H12.6675V11.4009V10.7998H13.3006V10.1996V9.60109V9V8.39977V7.80126V7.19931H12.6675V6.59994V5.99971V5.40034H12.0336V4.80097H11.4005V4.20074H10.7666H10.1344V3.60138H9.50042H8.8665H8.23342H7.60034H6.96641H6.33333V4.20074H5.70026H5.06718V4.80097H4.43325V5.40034V5.99971Z" fill="#FDCD00"/>
<path d="M17.7338 4.20074V3.60138V3.00029H17.0999V3.60138H16.4668H15.8337V4.20074V4.80097V5.40034H16.4668V4.80097H17.0999H17.7338V5.40034V5.99971H18.3678V5.40034V4.80097V4.20074H17.7338Z" fill="#F2A317"/>
<path d="M16.4668 2.40092V1.80069H15.8337H15.1998V1.1996H14.5676V0.599369H13.9337H13.3006V0H12.6675H12.0336H11.4005H10.7666V0.599369H11.4005H12.0336V1.1996H12.6675V1.80069H13.3006V2.40092H13.9337V3.00029H14.5676H15.1998H15.8337H16.4668H17.0999V2.40092H16.4668Z" fill="#F2A317"/>
<path d="M17.7339 4.20074V3.60138V3.00029H17.0999V3.60138H16.4668H15.8338V4.20074V4.80097V5.40034H16.4668V4.80097H17.0999H17.7339V5.40034V5.99971H18.3678V5.40034V4.80097V4.20074H17.7339Z" fill="#F2A317"/>
<path d="M17.7338 4.20074V3.60138V3.00029H17.0999V3.60138V4.20074H17.7338V4.80097V5.39948V5.99971H18.3678V5.39948V4.80097V4.20074H17.7338Z" fill="#1D1D1B"/>
<path d="M15.2007 1.1996H14.5676V1.80069H15.2007V1.1996Z" fill="#1D1D1B"/>
<path d="M15.1998 2.40092H15.8338H16.4668V1.80069H15.8338H15.1998V2.40092Z" fill="#1D1D1B"/>
<path d="M13.9336 1.1996H14.5676V0.599369H13.9336H13.3006V1.1996H13.9336Z" fill="#1D1D1B"/>
<path d="M17.0999 2.40092H16.4668V3.00029H17.0999V2.40092Z" fill="#1D1D1B"/>
<path d="M11.4005 0.599369H12.0336H12.6675H13.3006V0H12.6675H12.0336H11.4005H10.7666V0.599369H11.4005Z" fill="#1D1D1B"/>
<path d="M15.8338 13.801H15.1998V14.4003H15.8338V13.801Z" fill="#1D1D1B"/>
<path d="M18.3678 5.99971H17.7338H18.3678V6.59994V7.19931V7.80126V8.39977V9V9.60109V10.1996V10.7998V11.4009V11.9994H19V11.4009V10.7998V10.1996V9.60109V9V8.39977V7.80126V7.19931V6.59994V5.99971H18.3678Z" fill="#1D1D1B"/>
<path d="M15.8337 14.9997V15.6017V16.201H16.4668V15.6017V14.9997H15.8337Z" fill="#1D1D1B"/>
<path d="M17.0999 14.4003H16.4668V14.9997H17.0999V14.4003Z" fill="#1D1D1B"/>
<path d="M17.7338 11.9994V12.5997V13.2007H17.0999V13.801V14.4003H17.7338V13.801V13.2007H18.3678V12.5997V11.9994H17.7338Z" fill="#1D1D1B"/>
<path d="M13.3006 17.4015H12.6675V18H13.3006V17.4015Z" fill="#1D1D1B"/>
<path d="M15.1998 16.201V15.6017H14.5676V16.201V16.8004H15.1998V16.201Z" fill="#1D1D1B"/>
<path d="M14.5667 16.8004H13.9337V17.4015H14.5667V16.8004Z" fill="#1D1D1B"/>
<path d="M10.7666 16.8004V17.4015H10.1344H9.50043H8.8665H8.23342H7.60034H6.96641H6.33334H5.70026V18H6.33334H6.96641H7.60034H8.23342H8.8665H9.50043H10.1344H10.7666V17.4015H11.4005H12.0336V16.8004H11.4005H10.7666Z" fill="#1D1D1B"/>
<path d="M12.6667 16.201H12.0336V16.8004H12.6667V16.201Z" fill="#1D1D1B"/>
<path d="M13.3006 15.6017H12.6675V16.201H13.3006H13.9337V15.6017V14.9997H13.3006V15.6017Z" fill="#1D1D1B"/>
<path d="M14.5668 14.4003H13.9337V14.9997H14.5668V14.4003Z" fill="#1D1D1B"/>
<path d="M15.2007 13.801H14.5676V14.4012H15.2007V13.801Z" fill="#1D1D1B"/>
<path d="M15.1998 13.2007V13.801H15.8338V13.2007V12.5997H15.1998V13.2007Z" fill="#1D1D1B"/>
<path d="M15.8338 6.59995V7.19931V7.80126V8.39977V9V9.60109V10.1996V10.7998V11.4009V11.9994V12.5997H16.4668V11.9994V11.4009V10.7998V10.1996V9.60109V9V8.39977V7.80126V7.19931V6.59995H15.8338Z" fill="#1D1D1B"/>
<path d="M15.1998 5.40034V5.99971H15.8338V5.40034V4.80098H15.1998V5.40034Z" fill="#1D1D1B"/>
<path d="M15.2007 3.60138H14.5676V4.20074H15.2007V3.60138Z" fill="#1D1D1B"/>
<path d="M12.0336 13.2007H11.4005V13.801H12.0336V13.2007Z" fill="#1D1D1B"/>
<path d="M12.6675 6.59994V7.19931H13.3006V7.80126V8.39977V9V9.60109V10.1996V10.7998H12.6675V11.4009V11.9994H12.0336V12.5997V13.2007H12.6675V12.5997H13.3006V11.9994V11.4009H13.9337V10.7998V10.1996V9.60109V9V8.39977V7.80126V7.19931V6.59994H13.3006V5.99971V5.39948H12.6675V5.99971V6.59994Z" fill="#1D1D1B"/>
<path d="M12.6667 4.80098H12.0336V5.39949H12.6667V4.80098Z" fill="#1D1D1B"/>
<path d="M12.0336 4.20074H11.4005V4.80011H12.0336V4.20074Z" fill="#1D1D1B"/>
<path d="M14.5668 3.00029H13.9337V3.60138H14.5668V3.00029Z" fill="#1D1D1B"/>
<path d="M13.9345 2.40092H13.3006V3.00029H13.9345V2.40092Z" fill="#1D1D1B"/>
<path d="M13.3006 1.80069H12.6675V2.40092H13.3006V1.80069Z" fill="#1D1D1B"/>
<path d="M12.6667 1.1996H12.0336V1.80069H12.6667V1.1996Z" fill="#1D1D1B"/>
<path d="M10.7666 1.1996H11.4005H12.0336V0.599369H11.4005H10.7666V1.1996Z" fill="#1D1D1B"/>
<path d="M5.06718 16.8004H4.43326V17.4015H5.06718H5.70026V16.8004H5.06718Z" fill="#1D1D1B"/>
<path d="M4.4341 16.201H3.80017V16.8004H4.4341V16.201Z" fill="#1D1D1B"/>
<path d="M3.16625 15.6017V14.9997H2.53317V15.6017V16.201H3.16625H3.80018V15.6017H3.16625Z" fill="#1D1D1B"/>
<path d="M2.53316 14.4003H1.90009V14.9997H2.53316V14.4003Z" fill="#1D1D1B"/>
<path d="M6.33333 14.9997H6.96641H7.60033H8.23341H8.86649H9.50042H10.1343H10.7666V14.4003H11.4005V13.801H10.7666H10.1343V14.4003H9.50042H8.86649H8.23341H7.60033H6.96641H6.33333V13.801H5.70025H5.06717V14.4003H5.70025V14.9997H6.33333Z" fill="#1D1D1B"/>
<path d="M5.06634 13.2007H4.43326V13.801H5.06634V13.2007Z" fill="#1D1D1B"/>
<path d="M1.90007 13.2007H1.26614V13.801V14.4003H1.90007V13.801V13.2007Z" fill="#1D1D1B"/>
<path d="M1.26617 11.9994H0.633087V12.5997V13.2007H1.26617V12.5997V11.9994Z" fill="#1D1D1B"/>
<path d="M0.633079 10.7998V10.1996V9.60109V9V8.39977V7.80126V7.19931V6.59995H0V7.19931V7.80126V8.39977V9V9.60109V10.1996V10.7998V11.4009H0.633079V10.7998Z" fill="#1D1D1B"/>
<path d="M4.43326 11.9994H3.80018V11.4009V10.7998H3.16625V10.1996V9.60109V9V8.39977V7.80126V7.19931H3.80018V6.59994V5.99971H4.43326V5.39949V4.80098H3.80018V5.39949H3.16625V5.99971V6.59994H2.53317V7.19931V7.80126V8.39977V9V9.60109V10.1996V10.7998V11.4009H3.16625V11.9994V12.5997H3.80018V13.2007H4.43326V12.5997V11.9994Z" fill="#1D1D1B"/>
<path d="M1.26617 5.39949V4.80098H0.633087V5.39949V5.99971H1.26617V5.39949Z" fill="#1D1D1B"/>
<path d="M5.06634 4.20074H4.43326V4.80011H5.06634V4.20074Z" fill="#1D1D1B"/>
<path d="M1.90007 4.20074V3.60138H1.26614V4.20074V4.80097H1.90007V4.20074Z" fill="#1D1D1B"/>
<path d="M6.33333 4.20074V3.60138H6.96641H7.60033H8.23341H8.86649H9.50042H10.1343V4.20074H10.7666H11.4005V3.60138H10.7666V3.00029H10.1343H9.50042H8.86649H8.23341H7.60033H6.96641H6.33333H5.70025V3.60138H5.06717V4.20074H5.70025H6.33333Z" fill="#1D1D1B"/>
<path d="M2.53316 3.00029H1.90009V3.60138H2.53316V3.00029Z" fill="#1D1D1B"/>
<path d="M3.16625 2.40092H2.53317V3.00029H3.16625V2.40092Z" fill="#1D1D1B"/>
<path d="M3.80016 1.80069H3.16623V2.40092H3.80016V1.80069Z" fill="#1D1D1B"/>
<path d="M4.4341 1.1996H3.80017V1.80069H4.4341V1.1996Z" fill="#1D1D1B"/>
<path d="M5.70026 1.1996V0.599369H5.06718H4.43326V1.1996H5.06718H5.70026Z" fill="#1D1D1B"/>
<path d="M6.96641 0.599369H7.60034H8.23342H8.8665H9.50043H10.1344H10.7666V0H10.1344H9.50043H8.8665H8.23342H7.60034H6.96641H6.33334H5.70026V0.599369H6.33334H6.96641Z" fill="#1D1D1B"/>
<path d="M17.0999 4.80098H16.4668V5.40034H15.8337V5.99971V6.59994H16.4668V5.99971H17.0999H17.7338V5.40034V4.80098H17.0999Z" fill="white"/>
<path d="M16.4668 3.00029H15.8338H15.1998H14.5676V3.60138H15.1998V4.20074H15.8338V3.60138H16.4668H17.0999V3.00029H16.4668Z" fill="white"/>
<path d="M8.86648 13.801H8.2334H7.60032H6.96639V13.1999H6.33331H5.70023V12.5997H5.06715V11.9994H4.43323V12.5997V13.1999H5.06715V13.801H5.70023H6.33331V14.4003H6.96639H7.60032H8.2334H8.86648H9.5004H10.1343V13.801H9.5004H8.86648Z" fill="white"/>
<path d="M10.1343 13.1999V13.801H10.7666H11.4005V13.1999H10.7666H10.1343Z" fill="white"/>
<path d="M12.0336 12.5997H11.4005V13.199H12.0336V12.5997Z" fill="white"/>
<path d="M4.43325 10.7998H3.80017V11.4009V11.9994H4.43325V11.4009V10.7998Z" fill="white"/>
<path d="M3.80016 9.60109V9V8.39977H3.16623V9V9.60109V10.1996V10.7998H3.80016V10.1996V9.60109Z" fill="white"/>
<path d="M3.80016 7.19931H3.16623V7.8004H3.80016V7.19931Z" fill="white"/>
</g>
<defs>
<clipPath id="clip0_349_19">
<rect width="19" height="18" fill="white"/>
</clipPath>
</defs>
</svg>
