<svg width="13" height="18" viewBox="0 0 13 18" fill="none" xmlns="http://www.w3.org/2000/svg">
<path d="M6.49968 4.49064C7.71684 4.49064 8.24923 5.29805 8.29225 6.57968L8.29404 6.74943V8.98127L10.8682 9.36118C11.2008 9.41015 11.5199 9.52679 11.8059 9.70394C12.0919 9.88108 12.3387 10.115 12.5311 10.3912C12.7235 10.6675 12.8575 10.9803 12.9248 11.3104C12.9921 11.6405 12.9913 11.9809 12.9225 12.3106L12.8857 12.4615L11.786 16.4519C11.7109 16.7249 11.5635 16.9726 11.3595 17.1686C11.1555 17.3646 10.9025 17.5018 10.6271 17.5656L10.4971 17.5889L7.75358 17.9841C7.42365 18.0315 7.08723 17.9723 6.79311 17.8152C6.499 17.6581 6.26248 17.4111 6.11787 17.1102L6.06409 16.9845L5.8696 16.4716C5.64977 15.8895 5.2873 15.3722 4.81557 14.9673L4.63362 14.8218L3.20226 13.7422C3.12737 13.6858 3.04758 13.6362 2.96385 13.5941L2.83568 13.5366L0.868336 12.757C0.748344 12.7094 0.644562 12.6282 0.569386 12.5231C0.494211 12.418 0.450819 12.2934 0.444394 12.1642C0.412127 11.5158 0.883573 11.0452 1.71801 10.6266C2.36334 10.3033 3.26679 10.3303 4.46691 10.6662L4.7107 10.7371V6.74044C4.7107 5.36092 5.22786 4.49064 6.49968 4.49064ZM6.49968 4.91879e-07C7.57487 -0.000374332 8.63334 0.266598 9.58023 0.776985C10.5271 1.28737 11.3328 2.02522 11.9251 2.9244C12.5174 3.82358 12.8778 4.85598 12.974 5.92905C13.0701 7.00213 12.8991 8.08235 12.4761 9.07288C12.1524 8.83913 11.7897 8.66516 11.405 8.55915L11.2491 8.52053C11.5996 7.68732 11.7257 6.77648 11.6147 5.87912C11.5037 4.98176 11.1595 4.12933 10.6166 3.4071C10.0736 2.68486 9.35094 2.11814 8.52081 1.76362C7.69069 1.4091 6.78222 1.2792 5.88627 1.38692C4.99033 1.49464 4.13831 1.8362 3.41544 2.37744C2.69257 2.91868 2.1242 3.64063 1.76716 4.47107C1.41012 5.30151 1.27694 6.21133 1.38093 7.10953C1.48493 8.00774 1.82245 8.86284 2.35975 9.5893C1.90802 9.62343 1.56027 9.70247 1.31737 9.82461C1.20982 9.8785 1.10585 9.93418 1.00547 9.99077C0.384036 9.00572 0.0378129 7.8716 0.00292517 6.70676C-0.0319626 5.54191 0.245763 4.38903 0.807124 3.36841C1.36848 2.34779 2.1929 1.49684 3.19436 0.904349C4.19582 0.31186 5.3376 -0.000452408 6.50058 4.91879e-07M6.50058 2.24711C7.22197 2.24699 7.93155 2.43059 8.5627 2.78067C9.19384 3.13076 9.72584 3.63584 10.1087 4.24848C10.4916 4.86112 10.7128 5.56123 10.7516 6.28306C10.7904 7.00488 10.6454 7.72474 10.3304 8.37504L9.19212 8.20709V7.626C9.33757 7.27282 9.41218 6.89439 9.41171 6.51232C9.4123 6.10279 9.32663 5.69776 9.16029 5.32369C8.99395 4.94962 8.75069 4.61494 8.44641 4.34155L8.31555 4.23018C7.88534 3.82602 7.28752 3.59251 6.50058 3.59251C5.70468 3.59251 5.10238 3.82961 4.67216 4.24006C4.1801 4.63662 3.83025 5.18293 3.6755 5.7964C3.52075 6.40986 3.56952 7.05713 3.81442 7.64037V9.30819C3.81442 9.37965 3.78609 9.44818 3.73566 9.49871C3.68524 9.54924 3.61685 9.57763 3.54553 9.57763C3.13304 9.18137 2.80497 8.70545 2.58114 8.1786C2.35731 7.65176 2.24236 7.08492 2.24323 6.51232C2.24312 5.95213 2.35313 5.3974 2.56698 4.87982C2.78083 4.36224 3.09434 3.89194 3.4896 3.49578C3.88486 3.09963 4.35413 2.78537 4.8706 2.57097C5.38708 2.35657 5.94064 2.24622 6.49968 2.24622" fill="white"/>
</svg>
