<svg width="54" height="54" viewBox="0 0 54 54" fill="none" xmlns="http://www.w3.org/2000/svg">
<rect width="54" height="54" rx="27" fill="url(#paint0_linear_2008_120)" fill-opacity="0.22"/>
<path d="M32.1923 30.5L27 35.75M27 35.75L32.1923 41M27 35.75H37.3846C38.6087 35.75 39.7826 35.2583 40.6482 34.3832C41.5137 33.508 42 32.321 42 31.0833V22.9167C42 21.679 41.5137 20.492 40.6482 19.6168C39.7826 18.7417 38.6087 18.25 37.3846 18.25H33.9231M21.8077 23.5L27 18.25M27 18.25L21.8077 13M27 18.25H16.6154C15.3913 18.25 14.2174 18.7417 13.3518 19.6168C12.4863 20.492 12 21.679 12 22.9167V31.0833C12 32.321 12.4863 33.508 13.3518 34.3832C14.2174 35.2583 15.3913 35.75 16.6154 35.75H20.0769" stroke="#8BA8D0" stroke-width="2" stroke-linecap="round" stroke-linejoin="round"/>
<path d="M32.1923 30.5L27 35.75M27 35.75L32.1923 41M27 35.75H37.3846C38.6087 35.75 39.7826 35.2583 40.6482 34.3832C41.5137 33.508 42 32.321 42 31.0833V22.9167C42 21.679 41.5137 20.492 40.6482 19.6168C39.7826 18.7417 38.6087 18.25 37.3846 18.25H33.9231M21.8077 23.5L27 18.25M27 18.25L21.8077 13M27 18.25H16.6154C15.3913 18.25 14.2174 18.7417 13.3518 19.6168C12.4863 20.492 12 21.679 12 22.9167V31.0833C12 32.321 12.4863 33.508 13.3518 34.3832C14.2174 35.2583 15.3913 35.75 16.6154 35.75H20.0769" stroke="url(#paint1_linear_2008_120)" stroke-width="2" stroke-linecap="round" stroke-linejoin="round"/>
<defs>
<linearGradient id="paint0_linear_2008_120" x1="-0.349138" y1="1.84091" x2="55.7337" y2="3.77687" gradientUnits="userSpaceOnUse">
<stop stop-color="#4630BA"/>
<stop offset="1" stop-color="#A415D7"/>
</linearGradient>
<linearGradient id="paint1_linear_2008_120" x1="11.806" y1="13.9545" x2="42.9577" y2="15.1067" gradientUnits="userSpaceOnUse">
<stop stop-color="#4630BA"/>
<stop offset="1" stop-color="#A415D7"/>
</linearGradient>
</defs>
</svg>
